<svg xmlns="http://www.w3.org/2000/svg" width="36" height="36" viewBox="0 0 36 36">
  <g fill="none" fill-rule="evenodd">
    <rect width="35" height="35" x=".5" y=".5" fill="#FFF" stroke="#1170DA" stroke-opacity=".5" rx="8"/>
    <path fill="#1170DA" fill-rule="nonzero" d="M26.7442581,13.835788 L26.2201563,13.2773572 C26.0552118,13.1029594 25.8357629,13.0068823 25.6012244,13.0068823 C25.366816,13.0068823 25.1471069,13.1029594 24.9821625,13.2773572 L19.0035773,19.6038541 L13.0180977,13.2703372 C12.8534134,13.0959394 12.6337043,13 12.3992959,13 C12.1648875,13 11.9450483,13.0959394 11.780234,13.2703372 L11.2560021,13.8253269 C10.914666,14.1862354 10.914666,14.7741225 11.2560021,15.135031 L18.382434,22.7029594 C18.5471183,22.8772195 18.7665672,23 19.0030569,23 L19.0057887,23 C19.2403272,23 19.4597761,22.8770819 19.6244604,22.7029594 L26.7442581,15.1555403 C26.9092025,14.9812801 26.9997398,14.7420509 27,14.4940124 C27,14.2458362 26.9092025,14.0099105 26.7442581,13.835788 Z" transform="rotate(-90 19 18)"/>
  </g>
</svg>
