<svg xmlns="http://www.w3.org/2000/svg" width="36" height="36" viewBox="0 0 36 36">
  <g fill="none" fill-rule="evenodd">
    <rect width="35" height="35" x=".5" y=".5" fill="#FFF" stroke="#1170DA" stroke-opacity=".5" rx="8"/>
    <path fill="#1170DA" fill-rule="nonzero" d="M24.7442581,13.835788 L24.2201563,13.2773572 C24.0552118,13.1029594 23.8357629,13.0068823 23.6012244,13.0068823 C23.366816,13.0068823 23.1471069,13.1029594 22.9821625,13.2773572 L17.0035773,19.6038541 L11.0180977,13.2703372 C10.8534134,13.0959394 10.6337043,13 10.3992959,13 C10.1648875,13 9.94504833,13.0959394 9.78023399,13.2703372 L9.25600208,13.8253269 C8.91466597,14.1862354 8.91466597,14.7741225 9.25600208,15.135031 L16.382434,22.7029594 C16.5471183,22.8772195 16.7665672,23 17.0030569,23 L17.0057887,23 C17.2403272,23 17.4597761,22.8770819 17.6244604,22.7029594 L24.7442581,15.1555403 C24.9092025,14.9812801 24.9997398,14.7420509 25,14.4940124 C25,14.2458362 24.9092025,14.0099105 24.7442581,13.835788 Z" transform="rotate(90 17 18)"/>
  </g>
</svg>
