<svg xmlns="http://www.w3.org/2000/svg" width="38" height="38" viewBox="0 0 38 38">
  <g fill="none" fill-rule="evenodd">
    <rect width="37" height="37" x=".5" y=".5" fill="#FFF" fill-opacity=".7" stroke="#FFF" rx="8"/>
    <g fill="#41436B" fill-rule="nonzero" transform="translate(11 9)">
      <path d="M14.1666667,3.66666667 L11.82125,3.66666667 C11.4375,1.5825 9.6475,0 7.5,0 C5.3525,0 3.5625,1.5825 3.17916667,3.66666667 L0.833333333,3.66666667 C0.373333333,3.66666667 0,4.04 0,4.5 L0,19.1666667 C0,19.6266667 0.373333333,20 0.833333333,20 L14.1666667,20 C14.6266667,20 15,19.6266667 15,19.1666667 L15,4.5 C15,4.04 14.6266667,3.66666667 14.1666667,3.66666667 Z M7.5,1.66666667 C8.7275,1.66666667 9.76791667,2.51 10.1120833,3.66666667 L4.88791667,3.66666667 C5.23208333,2.51 6.27291667,1.66666667 7.5,1.66666667 Z M13.3333333,18.3333333 L1.66666667,18.3333333 L1.66666667,5.33333333 L3.10041667,5.33333333 L3.10041667,6.78833333 C3.10041667,7.24833333 3.47375,7.62166667 3.93375,7.62166667 C4.39375,7.62166667 4.76708333,7.24833333 4.76708333,6.78833333 L4.76708333,5.33333333 L10.2333333,5.33333333 L10.2333333,6.78833333 C10.2333333,7.24833333 10.6066667,7.62166667 11.0666667,7.62166667 C11.5266667,7.62166667 11.9,7.24833333 11.9,6.78833333 L11.9,5.33333333 L13.3333333,5.33333333 L13.3333333,18.3333333 Z"/>
      <path d="M11.5125,13.75125 C11.0525,13.75125 10.6791667,14.1245833 10.6791667,14.5845833 L10.6791667,15.5858333 L9.72791667,15.5858333 C9.26791667,15.5858333 8.89458333,15.9591667 8.89458333,16.4191667 C8.89458333,16.8791667 9.26791667,17.2525 9.72791667,17.2525 L11.5125,17.2525 C11.9725,17.2525 12.3458333,16.8791667 12.3458333,16.4191667 L12.3458333,14.5845833 C12.3458333,14.1241667 11.9725,13.75125 11.5125,13.75125 Z"/>
    </g>
  </g>
</svg>
