<svg xmlns="http://www.w3.org/2000/svg" width="59" height="54" viewBox="0 0 59 54">
  <path fill="#17194C" d="M1091.96,290 C1096.12,290 1099.5,291.441748 1102.1,294.325243 C1104.7,297.208738 1106,301.621359 1106,307.563107 C1106,313.15534 1105.30667,318.048544 1103.92,322.242718 C1102.53333,326.436893 1100.84333,329.975728 1098.85,332.859223 C1096.85667,335.742718 1094.73333,338.101942 1092.48,339.936893 C1090.22667,341.771845 1088.32,343.126214 1086.76,344 L1086.76,344 L1080.78,336.135922 L1081.1983,335.855657 C1083.96927,333.949574 1086.38651,331.290569 1088.45,327.878641 C1090.61667,324.296117 1091.61333,320.145631 1091.44,315.427184 C1088.32,315.951456 1085.63333,315.07767 1083.38,312.805825 C1081.12667,310.533981 1080,307.213592 1080,302.84466 C1080,298.825243 1081.12667,295.679612 1083.38,293.407767 C1085.63333,291.135922 1088.49333,290 1091.96,290 Z M1058.96,290 C1063.12,290 1066.5,291.441748 1069.1,294.325243 C1071.7,297.208738 1073,301.621359 1073,307.563107 C1073,313.15534 1072.30667,318.048544 1070.92,322.242718 C1069.53333,326.436893 1067.84333,329.975728 1065.85,332.859223 C1063.85667,335.742718 1061.73333,338.101942 1059.48,339.936893 C1057.22667,341.771845 1055.32,343.126214 1053.76,344 L1053.76,344 L1047.78,336.135922 L1048.1983,335.855657 C1050.96927,333.949574 1053.38651,331.290569 1055.45,327.878641 C1057.61667,324.296117 1058.61333,320.145631 1058.44,315.427184 C1055.32,315.951456 1052.63333,315.07767 1050.38,312.805825 C1048.12667,310.533981 1047,307.213592 1047,302.84466 C1047,298.825243 1048.12667,295.679612 1050.38,293.407767 C1052.63333,291.135922 1055.49333,290 1058.96,290 Z" opacity=".1" transform="translate(-1047 -290)"/>
</svg>
