<svg xmlns="http://www.w3.org/2000/svg" width="26" height="25" viewBox="0 0 26 25">
  <path fill="#1170DA" d="M23.8932353,2.68922414 C21.0676471,-0.495258621 16.471,-0.495258621 13.6461765,2.68922414 L12.9900588,3.42844828 L12.3343235,2.68922414 C9.5095,-0.495689655 4.91247059,-0.495689655 2.08764706,2.68922414 C-0.679823529,5.80905172 -0.697794118,10.7543103 2.04597059,14.1926724 C4.54847059,17.3275862 11.9290294,24.100431 12.2421765,24.387069 C12.4547647,24.5818966 12.7105588,24.6767241 12.9648235,24.6767241 C12.9732353,24.6767241 12.9816471,24.6767241 12.9896765,24.6762931 C13.2527353,24.6900862 13.5177059,24.5883621 13.7371765,24.387069 C14.0503235,24.100431 21.4316471,17.3275862 23.9349118,14.1922414 C26.6782941,10.7543103 26.6603235,5.80905172 23.8932353,2.68922414 Z"/>
</svg>
