<svg xmlns="http://www.w3.org/2000/svg" width="26" height="25" viewBox="0 0 26 25">
  <path fill="#1170DA" d="M23.8932353,2.68922414 C21.0676471,-0.495258621 16.471,-0.495258621 13.6461765,2.68922414 L12.9900588,3.42844828 L12.3343235,2.68922414 C9.5095,-0.495689655 4.91247059,-0.495689655 2.08764706,2.68922414 C-0.679823529,5.80905172 -0.697794118,10.7543103 2.04597059,14.1926724 C4.54847059,17.3275862 11.9290294,24.100431 12.2421765,24.387069 C12.4547647,24.5818966 12.7105588,24.6767241 12.9648235,24.6767241 C12.9732353,24.6767241 12.9816471,24.6767241 12.9896765,24.6762931 C13.2527353,24.6900862 13.5177059,24.5883621 13.7371765,24.387069 C14.0503235,24.100431 21.4316471,17.3275862 23.9349118,14.1922414 C26.6782941,10.7543103 26.6603235,5.80905172 23.8932353,2.68922414 Z M22.2296176,12.4625 C20.2784706,14.9060345 14.9152059,19.9456897 12.9896765,21.7340517 C11.0641471,19.9461207 5.70202941,14.9068966 3.75126471,12.462931 C1.83720588,10.0646552 1.81923529,6.64913793 3.70958824,4.51810345 C4.67502941,3.43017241 5.94291176,2.88577586 7.21079412,2.88577586 C8.47867647,2.88577586 9.74655882,3.42974138 10.712,4.51810345 L12.1542353,6.14396552 C12.3259118,6.3375 12.5423235,6.45301724 12.7694412,6.49353448 C13.1380294,6.58275862 13.5379706,6.46681034 13.8247353,6.14439655 L15.2677353,4.51810345 C17.199,2.34181034 20.3404118,2.34224138 22.2705294,4.51810345 C24.1608824,6.64913793 24.1429118,10.0646552 22.2296176,12.4625 Z"/>
</svg>
