<svg xmlns="http://www.w3.org/2000/svg" xmlns:xlink="http://www.w3.org/1999/xlink" width="28" height="28" viewBox="0 0 28 28">
  <defs>
    <rect id="mega-a" width="26" height="26" x="0" y="0" rx="13"/>
    <linearGradient id="mega-c" x1="50%" x2="50%" y1="100%" y2="0%">
      <stop offset="0%" stop-color="#FF9F04"/>
      <stop offset="100%" stop-color="#FFD400"/>
    </linearGradient>
    <path id="mega-b" d="M10.4453125,17 L10.4453125,16.7470703 C9.93945312,16.6923828 9.61360677,16.5898438 9.46777344,16.4394531 C9.24446615,16.2070312 9.1328125,15.7080078 9.1328125,14.9423828 L9.1328125,14.9423828 L9.1328125,9.35742188 L12.6533203,17 L12.8447266,17 L16.4267578,9.02929688 L16.4267578,15.3183594 C16.4267578,15.9108073 16.3572591,16.2856445 16.2182617,16.4428711 C16.0792643,16.6000977 15.7272135,16.7014974 15.1621094,16.7470703 L15.1621094,16.7470703 L15.1621094,17 L19.0859375,17 L19.0859375,16.7470703 C18.5664062,16.7014974 18.2314453,16.6069336 18.0810547,16.4633789 C17.9306641,16.3198242 17.8554688,15.9928385 17.8554688,15.4824219 L17.8554688,15.4824219 L17.8554688,9.25488281 C17.8554688,8.75813802 17.9306641,8.43343099 18.0810547,8.28076172 C18.2314453,8.12809245 18.5664062,8.03352865 19.0859375,7.99707031 L19.0859375,7.99707031 L19.0859375,7.73730469 L16.296875,7.73730469 L13.2001953,14.7988281 L9.95996094,7.73730469 L7.19140625,7.73730469 L7.19140625,7.99707031 C7.75651042,8.02441406 8.1188151,8.11442057 8.27832031,8.26708984 C8.43782552,8.41975911 8.51757812,8.74902344 8.51757812,9.25488281 L8.51757812,9.25488281 L8.51757812,14.9423828 C8.51757812,15.6806641 8.43554688,16.1512044 8.27148438,16.3540039 C8.10742188,16.5568034 7.7360026,16.6878255 7.15722656,16.7470703 L7.15722656,16.7470703 L7.15722656,17 L10.4453125,17 Z"/>
  </defs>
  <g fill="none" fill-rule="evenodd" transform="translate(1 1)">
    <use fill="#F8FAFF" xlink:href="#mega-a"/>
    <rect width="27" height="27" x="-.5" y="-.5" stroke="#FFCA31" rx="13.5"/>
    <rect width="25" height="25" x=".5" y=".5" stroke="#FFF" stroke-linejoin="square" rx="12.5"/>
    <g fill-rule="nonzero">
      <use fill="#FFF" xlink:href="#mega-b"/>
      <use fill="#FFF" xlink:href="#mega-b"/>
      <use fill="url(#mega-c)" xlink:href="#mega-b"/>
    </g>
  </g>
</svg>
