<svg xmlns="http://www.w3.org/2000/svg" width="20" height="16" viewBox="0 0 20 16">
  <path fill="#1170DA" d="M6.45070313 1.37699219C6.20125.585429688 5.46039063.0098046875 4.5875.0098046875 3.71460937.0098046875 2.97375.585429688 2.72429687 1.37699219L0 1.37699219 0 2.54886719 2.72425781 2.54886719C2.97371094 3.34042969 3.71457031 3.91605469 4.58746094 3.91605469 5.46035156 3.91605469 6.20121094 3.34042969 6.45066406 2.54886719L20 2.54886719 20 1.37699219 6.45070313 1.37699219zM6.45074219 12.6074609C6.20128906 11.8158594 5.46039063 11.2401953 4.58746094 11.2401953 3.71453125 11.2401953 2.97367187 11.8158594 2.72421875 12.6074609L0 12.6074609 0 13.7793359 2.72429688 13.7793359C2.97378906 14.5708594 3.71460938 15.1464453 4.58746094 15.1464453 5.4603125 15.1464453 6.20113281 14.5708594 6.450625 13.7793359L20 13.7793359 20 12.6074609 6.45074219 12.6074609zM11.8632031 6.99222656C11.61375 6.20066406 10.8728906 5.625 10 5.625 9.12710937 5.625 8.38625 6.200625 8.13675781 6.99222656L0 6.99222656 0 8.16410156 8.13679687 8.16410156C8.38628906 8.955625 9.12710937 9.53125 10 9.53125 10.8728906 9.53125 11.6137109 8.955625 11.8632031 8.16410156L20 8.16410156 20 6.99222656 11.8632031 6.99222656 11.8632031 6.99222656z"/>
</svg>
