<svg xmlns="http://www.w3.org/2000/svg" width="14" height="14" viewBox="0 0 14 14">
  <g fill="none">
    <path fill="#F9CFAC" d="M11.645515,6.96333058 L11.1499611,6.96333058 C11.8341661,6.96333058 12.3888457,6.49095828 12.3888457,5.90828049 C12.3888457,5.3256027 11.8341661,4.8532304 11.1499611,4.8532304 C11.146833,4.8532304 7.90117219,4.8532304 7.92886126,4.8532304 C8.53768011,3.64343084 8.67216103,2.63680755 8.67216103,1.47704375 C8.67216103,0.663547376 7.89829179,0 6.9377536,0 C6.39038343,0 5.94664595,0.377892565 5.94664595,0.84404007 C5.94664595,2.41922985 4.99378885,3.88332286 3.42526807,4.71818399 L2.52134691,5.19928683 C0.952857097,6.03414796 0,7.49824097 0,9.07343075 C0,11.287638 2.10774529,13.0826211 4.70776137,13.0826211 L10.7782958,13.0826211 C11.3940834,13.0826211 11.8932919,12.6574886 11.8932919,12.133076 C11.8932919,11.6086634 11.3940834,11.1835309 10.7782958,11.1835309 L11.1499611,11.1835309 C11.8341661,11.1835309 12.3888457,10.7111586 12.3888457,10.1284808 C12.3888457,9.54580305 11.8341661,9.07343075 11.1499611,9.07343075 L11.645515,9.07343075 C12.32972,9.07343075 12.8843996,8.60105845 12.8843996,8.01838066 C12.8843996,7.43570288 12.32972,6.96333058 11.645515,6.96333058 Z"/>
    <g fill="#FFE4CC">
      <path d="M8.68066922,1.46824653 C8.68066922,2.44151044 8.60046604,3.31097457 8.13192692,4.40552614 C6.69400506,4.44194389 5.91736419,5.87665672 6.85896878,6.8202673 C6.56041576,7.02057807 6.34122887,7.30269116 6.24884174,7.62622976 C5.4920734,8.3789683 4.39396875,8.80947915 3.22424857,8.80947915 L2.72821033,8.80947915 C2.59117976,8.80947915 2.48019121,8.90334205 2.48019121,9.01922866 C2.48019121,9.13511526 2.59117976,9.22897816 2.72821033,9.22897816 L3.22424857,9.22897816 C4.34839523,9.22897816 5.41363736,8.87555025 6.23086036,8.24446643 C6.32318548,8.65780404 6.62142847,9.00685343 7.01925114,9.21639319 C6.50802172,9.82149429 6.60183496,10.6850592 7.31563399,11.1911848 C6.92853814,11.5857236 6.84061537,12.1247274 7.06854494,12.5849702 L4.71236329,12.5849702 C2.19512423,12.5849702 0.130675074,10.9130831 0.00620047802,8.80240011 C0.0895969073,7.31999549 1.02679916,5.95950777 2.52390458,5.16822777 C3.51185774,4.64595151 4.50669344,4.2188753 5.27908698,3.04058124 C5.71405052,2.37724844 5.95245889,1.62188804 5.95245889,0.838998014 C5.95245889,0.607224813 6.06344745,0.397475309 6.24295129,0.245669106 C6.97243753,-0.371256621 8.68066922,0.228705615 8.68066922,1.46824653 Z"/>
      <path d="M12.3761541 5.6632366C12.2616003 6.14033806 11.7619348 6.50223461 11.1608604 6.50223461L8.18463098 6.50223461C7.58473473 6.50223461 7.08435616 6.14198984 6.96933729 5.6632366 7.08389112 5.18613513 7.58352564 4.82423858 8.18463098 4.82423858L11.1608604 4.82423858C11.7607567 4.82423858 12.2611353 5.18448336 12.3761541 5.6632366zM12.8721924 7.76073163C12.7576385 8.2378331 12.257973 8.59972965 11.6568987 8.59972965L7.93661186 8.59972965C7.33671561 8.59972965 6.83633704 8.23948488 6.72131817 7.76073163 6.835872 7.28363017 7.33550652 6.92173362 7.93661186 6.92173362L11.6568987 6.92173362C12.2567949 6.92173362 12.7571735 7.28197839 12.8721924 7.76073163zM12.3761541 9.85822667C12.2616003 10.3353281 11.7619348 10.6972247 11.1608604 10.6972247L8.4326501 10.6972247C7.83275385 10.6972247 7.33237528 10.3369799 7.21735641 9.85822667 7.33191024 9.38112521 7.83154476 9.01922866 8.4326501 9.01922866L11.1608604 9.01922866C11.7607567 9.01922866 12.2611353 9.37947343 12.3761541 9.85822667zM11.8773257 11.850847C11.7641359 12.2718666 11.3195617 12.5849702 10.7888317 12.5849702L8.55665966 12.5849702C8.02558872 12.5849702 7.58101445 12.2711325 7.46816575 11.850847 7.58113846 11.4306138 8.02484466 11.1167237 8.55665966 11.1167237L10.7888317 11.1167237C11.3199027 11.1167237 11.764477 11.4305614 11.8773257 11.850847z"/>
    </g>
  </g>
</svg>
