<svg xmlns="http://www.w3.org/2000/svg" width="20" height="18" viewBox="0 0 20 18">
  <path fill="#1170DA" d="M2.65603175 9.49031746L5.3868254 7.78666667C5.8515873 7.49666667 5.73380952 6.78952381 5.20015873 6.66603175L4.15079365 6.42301587C5.09047619 4.05984127 7.39920635 2.42222222 10.0522222 2.42222222 12.6588889 2.42222222 14.9725397 3.98444444 15.9461905 6.40206349 16.191746 7.01190476 16.8853968 7.30698413 17.4952381 7.0615873 18.1050794 6.81603175 18.4004762 6.12238095 18.1547619 5.51253968 16.8161905 2.18888889 13.6357143.0411111111 10.0522222.0411111111 6.27968254.0411111111 3.01333333 2.45015873 1.81190476 5.88111111L.765555556 5.63873016C.231904762 5.51507937-.184761905 6.0984127.105079365 6.5631746L1.80873016 9.29396825C1.98857143 9.58222222 2.36777778 9.67015873 2.65603175 9.49031746zM19.8711111 11.6611111L18.2196825 8.8984127C18.0453968 8.60698413 17.6679365 8.51190476 17.3763492 8.68619048L14.6136508 10.337619C14.1434921 10.6187302 14.2477778 11.3279365 14.7790476 11.4615873L15.8346032 11.7273016C14.7852381 13.9250794 12.5338095 15.3706349 9.99079365 15.3244444 7.48730159 15.2790476 5.23666667 13.7603175 4.25714286 11.4549206 4 10.8498413 3.30111111 10.5674603 2.69587302 10.8247619 2.09079365 11.0819048 1.80873016 11.7807937 2.06571429 12.3860317 3.41206349 15.5547619 6.50603175 17.6426984 9.94761905 17.7050794 10.0020635 17.7060317 10.055873 17.7065079 10.11 17.7065079 13.7092063 17.7065079 16.8538095 15.5369841 18.1766667 12.3169841L19.1928571 12.5728571C19.7244444 12.7066667 20.1522222 12.1314286 19.8711111 11.6611111z"/>
</svg>
