<svg xmlns="http://www.w3.org/2000/svg" width="300" height="292" viewBox="0 0 300 292">
  <g fill="none" fill-rule="evenodd">
    <rect width="300" height="292" fill="#17194C" opacity=".8" rx="16"/>
    <path fill="#FFF" fill-rule="nonzero" d="M90.6318359 223C91.8753255 222.99349 92.991862 222.707031 93.9814453 222.140625 94.9710286 221.574219 95.7376302 220.776693 96.28125 219.748047 96.8248698 218.719401 97.0966797 217.544271 97.0966797 216.222656L97.0966797 216.222656 97.0966797 215.568359C97.0966797 214.246745 96.819987 213.066732 96.2666016 212.02832 95.7132161 210.989909 94.9433594 210.189128 93.9570312 209.625977 92.9707031 209.062826 91.8525391 208.78125 90.6025391 208.78125L90.6025391 208.78125 86.2275391 208.78125 86.2275391 223 90.6318359 223zM90.5732422 220.646484L89.1572266 220.646484 89.1572266 211.154297 90.6025391 211.154297C91.7548828 211.154297 92.6305339 211.527018 93.2294922 212.272461 93.8284505 213.017904 94.1279297 214.113281 94.1279297 215.558594L94.1279297 215.558594 94.1279297 216.310547C94.1149089 217.703776 93.8056641 218.77474 93.2001953 219.523438 92.5947266 220.272135 91.7190755 220.646484 90.5732422 220.646484L90.5732422 220.646484zM108.756836 223L108.756836 220.646484 102.155273 220.646484 102.155273 216.837891 107.780273 216.837891 107.780273 214.542969 102.155273 214.542969 102.155273 211.154297 108.737305 211.154297 108.737305 208.78125 99.2255859 208.78125 99.2255859 223 108.756836 223zM118.385742 223L118.385742 217.189453 124.010742 217.189453 124.010742 214.826172 118.385742 214.826172 118.385742 211.154297 124.713867 211.154297 124.713867 208.78125 115.456055 208.78125 115.456055 223 118.385742 223zM128.327148 223L129.303711 220.070312 134.44043 220.070312 135.426758 223 138.541992 223 133.219727 208.78125 130.504883 208.78125 125.211914 223 128.327148 223zM133.649414 217.697266L130.094727 217.697266 131.862305 212.375 133.649414 217.697266zM142.799805 223L142.799805 219.113281 142.506836 212.414062 146.334961 223 148.34668 223 152.18457 212.404297 151.891602 219.113281 151.891602 223 154.831055 223 154.831055 208.78125 150.983398 208.78125 147.350586 219.09375 143.698242 208.78125 139.870117 208.78125 139.870117 223 142.799805 223zM160.504883 223L160.504883 208.78125 157.575195 208.78125 157.575195 223 160.504883 223zM172.370117 223L172.370117 220.646484 166.149414 220.646484 166.149414 208.78125 163.219727 208.78125 163.219727 223 172.370117 223zM177.165039 223L177.165039 208.78125 174.235352 208.78125 174.235352 223 177.165039 223zM182.995117 223L182.995117 208.78125 180.06543 208.78125 180.06543 223 182.995117 223zM192.604492 223L193.581055 220.070312 198.717773 220.070312 199.704102 223 202.819336 223 197.49707 208.78125 194.782227 208.78125 189.489258 223 192.604492 223zM197.926758 217.697266L194.37207 217.697266 196.139648 212.375 197.926758 217.697266zM209.459961 223.195312C211.146159 223.195312 212.475911 222.742839 213.449219 221.837891 214.422526 220.932943 214.90918 219.702474 214.90918 218.146484L214.90918 218.146484 214.90918 208.78125 211.969727 208.78125 211.969727 218.244141C211.943685 219.975911 211.107096 220.841797 209.459961 220.841797 208.672201 220.841797 208.055339 220.628581 207.609375 220.202148 207.163411 219.775716 206.94043 219.097005 206.94043 218.166016L206.94043 218.166016 206.94043 208.78125 204.010742 208.78125 204.010742 218.253906C204.030273 219.790365 204.52832 220.998047 205.504883 221.876953 206.481445 222.755859 207.799805 223.195312 209.459961 223.195312zM69.5966797 247L70.5732422 244.070312 75.7099609 244.070312 76.6962891 247 79.8115234 247 74.4892578 232.78125 71.7744141 232.78125 66.4814453 247 69.5966797 247zM74.9189453 241.697266L71.3642578 241.697266 73.1318359 236.375 74.9189453 241.697266zM87.9267578 247L92.8779297 232.78125 89.6162109 232.78125 86.3935547 243.474609 83.1904297 232.78125 79.9384766 232.78125 84.8701172 247 87.9267578 247zM99.5283203 247.195312C101.214518 247.195312 102.544271 246.742839 103.517578 245.837891 104.490885 244.932943 104.977539 243.702474 104.977539 242.146484L104.977539 242.146484 104.977539 232.78125 102.038086 232.78125 102.038086 242.244141C102.012044 243.975911 101.175456 244.841797 99.5283203 244.841797 98.7405599 244.841797 98.1236979 244.628581 97.6777344 244.202148 97.2317708 243.775716 97.0087891 243.097005 97.0087891 242.166016L97.0087891 242.166016 97.0087891 232.78125 94.0791016 232.78125 94.0791016 242.253906C94.0986328 243.790365 94.5966797 244.998047 95.5732422 245.876953 96.5498047 246.755859 97.8681641 247.195312 99.5283203 247.195312zM113.727539 247L113.727539 235.154297 118.083008 235.154297 118.083008 232.78125 106.500977 232.78125 106.500977 235.154297 110.797852 235.154297 110.797852 247 113.727539 247zM127.848633 247L127.848633 232.78125 124.918945 232.78125 124.918945 247 127.848633 247zM133.493164 247L133.493164 237.644531 139.196289 247 142.125977 247 142.125977 232.78125 139.206055 232.78125 139.206055 242.15625 133.493164 232.78125 130.563477 232.78125 130.563477 247 133.493164 247zM150.124023 247.195312C151.79069 247.195312 153.133464 246.755859 154.152344 245.876953 155.171224 244.998047 155.736003 243.79362 155.84668 242.263672L155.84668 242.263672 152.916992 242.263672C152.851888 243.129557 152.596354 243.769206 152.150391 244.182617 151.704427 244.596029 151.028971 244.802734 150.124023 244.802734 149.121419 244.802734 148.38737 244.447917 147.921875 243.738281 147.45638 243.028646 147.223633 241.905599 147.223633 240.369141L147.223633 240.369141 147.223633 239.294922C147.236654 237.823568 147.485677 236.737956 147.970703 236.038086 148.455729 235.338216 149.186523 234.988281 150.163086 234.988281 151.061523 234.988281 151.730469 235.194987 152.169922 235.608398 152.609375 236.02181 152.864909 236.6875 152.936523 237.605469L152.936523 237.605469 155.866211 237.605469C155.709961 236.016927 155.130534 234.783203 154.12793 233.904297 153.125326 233.025391 151.803711 232.585938 150.163086 232.585938 148.97819 232.585938 147.938151 232.864258 147.042969 233.420898 146.147786 233.977539 145.45931 234.776693 144.977539 235.818359 144.495768 236.860026 144.254883 238.064453 144.254883 239.431641L144.254883 239.431641 144.254883 240.300781C144.254883 242.442708 144.777344 244.127279 145.822266 245.354492 146.867188 246.581706 148.301107 247.195312 150.124023 247.195312zM160.700195 247L160.700195 241.794922 163.03418 241.794922 165.700195 247 168.844727 247 168.844727 246.863281 165.768555 241.052734C166.621419 240.66862 167.257812 240.152669 167.677734 239.504883 168.097656 238.857096 168.307617 238.048177 168.307617 237.078125 168.307617 235.710938 167.851888 234.652995 166.94043 233.904297 166.028971 233.155599 164.733398 232.78125 163.053711 232.78125L163.053711 232.78125 157.770508 232.78125 157.770508 247 160.700195 247zM163.063477 239.421875L160.700195 239.421875 160.700195 235.154297 163.053711 235.154297C163.841471 235.154297 164.425781 235.346354 164.806641 235.730469 165.1875 236.114583 165.37793 236.641927 165.37793 237.3125 165.37793 237.970052 165.176107 238.486003 164.772461 238.860352 164.368815 239.234701 163.799154 239.421875 163.063477 239.421875L163.063477 239.421875zM180.06543 247L180.06543 244.646484 173.463867 244.646484 173.463867 240.837891 179.088867 240.837891 179.088867 238.542969 173.463867 238.542969 173.463867 235.154297 180.045898 235.154297 180.045898 232.78125 170.53418 232.78125 170.53418 247 180.06543 247zM186.188477 247C187.431966 246.99349 188.548503 246.707031 189.538086 246.140625 190.527669 245.574219 191.294271 244.776693 191.837891 243.748047 192.38151 242.719401 192.65332 241.544271 192.65332 240.222656L192.65332 240.222656 192.65332 239.568359C192.65332 238.246745 192.376628 237.066732 191.823242 236.02832 191.269857 234.989909 190.5 234.189128 189.513672 233.625977 188.527344 233.062826 187.40918 232.78125 186.15918 232.78125L186.15918 232.78125 181.78418 232.78125 181.78418 247 186.188477 247zM186.129883 244.646484L184.713867 244.646484 184.713867 235.154297 186.15918 235.154297C187.311523 235.154297 188.187174 235.527018 188.786133 236.272461 189.385091 237.017904 189.68457 238.113281 189.68457 239.558594L189.68457 239.558594 189.68457 240.310547C189.671549 241.703776 189.362305 242.77474 188.756836 243.523438 188.151367 244.272135 187.275716 244.646484 186.129883 244.646484L186.129883 244.646484zM204.313477 247L204.313477 244.646484 197.711914 244.646484 197.711914 240.837891 203.336914 240.837891 203.336914 238.542969 197.711914 238.542969 197.711914 235.154297 204.293945 235.154297 204.293945 232.78125 194.782227 232.78125 194.782227 247 204.313477 247zM208.961914 247L208.961914 241.794922 211.295898 241.794922 213.961914 247 217.106445 247 217.106445 246.863281 214.030273 241.052734C214.883138 240.66862 215.519531 240.152669 215.939453 239.504883 216.359375 238.857096 216.569336 238.048177 216.569336 237.078125 216.569336 235.710938 216.113607 234.652995 215.202148 233.904297 214.29069 233.155599 212.995117 232.78125 211.31543 232.78125L211.31543 232.78125 206.032227 232.78125 206.032227 247 208.961914 247zM211.325195 239.421875L208.961914 239.421875 208.961914 235.154297 211.31543 235.154297C212.10319 235.154297 212.6875 235.346354 213.068359 235.730469 213.449219 236.114583 213.639648 236.641927 213.639648 237.3125 213.639648 237.970052 213.437826 238.486003 213.03418 238.860352 212.630534 239.234701 212.060872 239.421875 211.325195 239.421875L211.325195 239.421875zM228.327148 247L228.327148 244.646484 221.725586 244.646484 221.725586 240.837891 227.350586 240.837891 227.350586 238.542969 221.725586 238.542969 221.725586 235.154297 228.307617 235.154297 228.307617 232.78125 218.795898 232.78125 218.795898 247 228.327148 247zM231.598633 247.107422C232.067383 247.107422 232.451497 246.969076 232.750977 246.692383 233.050456 246.41569 233.200195 246.05599 233.200195 245.613281 233.200195 245.164062 233.048828 244.799479 232.746094 244.519531 232.443359 244.239583 232.060872 244.099609 231.598633 244.099609 231.142904 244.099609 230.763672 244.239583 230.460938 244.519531 230.158203 244.799479 230.006836 245.164062 230.006836 245.613281 230.006836 246.05599 230.156576 246.41569 230.456055 246.692383 230.755534 246.969076 231.136393 247.107422 231.598633 247.107422zM90.1064453 57C91.2255859 56.9941406 92.2304688 56.7363281 93.1210938 56.2265625 94.0117188 55.7167969 94.7016602 54.9990234 95.190918 54.0732422 95.6801758 53.1474609 95.9248047 52.0898438 95.9248047 50.9003906L95.9248047 50.9003906 95.9248047 50.3115234C95.9248047 49.1220703 95.6757812 48.0600586 95.1777344 47.1254883 94.6796875 46.190918 93.9868164 45.4702148 93.0991211 44.9633789 92.2114258 44.456543 91.2050781 44.203125 90.0800781 44.203125L90.0800781 44.203125 86.1425781 44.203125 86.1425781 57 90.1064453 57zM90.0537109 54.8818359L88.7792969 54.8818359 88.7792969 46.3388672 90.0800781 46.3388672C91.1171875 46.3388672 91.9052734 46.6743164 92.4443359 47.3452148 92.9833984 48.0161133 93.2529297 49.0019531 93.2529297 50.3027344L93.2529297 50.3027344 93.2529297 50.9794922C93.2412109 52.2333984 92.9628906 53.1972656 92.4179688 53.8710938 91.8730469 54.5449219 91.0849609 54.8818359 90.0537109 54.8818359L90.0537109 54.8818359zM100.644531 57L100.644531 44.203125 98.0078125 44.203125 98.0078125 57 100.644531 57zM105.724609 57L105.724609 48.5800781 110.857422 57 113.494141 57 113.494141 44.203125 110.866211 44.203125 110.866211 52.640625 105.724609 44.203125 103.087891 44.203125 103.087891 57 105.724609 57zM128.77832 57L128.77832 54.9521484 123.276367 54.9521484 126.185547 51.8847656C126.982422 51.0117188 127.544922 50.2470703 127.873047 49.5908203 128.201172 48.9345703 128.365234 48.2900391 128.365234 47.6572266 128.365234 46.5029297 128.000488 45.609375 127.270996 44.9765625 126.541504 44.34375 125.517578 44.0273438 124.199219 44.0273438 123.337891 44.0273438 122.567383 44.2104492 121.887695 44.5766602 121.208008 44.9428711 120.682129 45.4482422 120.310059 46.0927734 119.937988 46.7373047 119.751953 47.4492188 119.751953 48.2285156L119.751953 48.2285156 122.300781 48.2285156C122.300781 47.5839844 122.466309 47.0639648 122.797363 46.668457 123.128418 46.2729492 123.581055 46.0751953 124.155273 46.0751953 124.688477 46.0751953 125.098633 46.237793 125.385742 46.5629883 125.672852 46.8881836 125.816406 47.3349609 125.816406 47.9033203 125.816406 48.3193359 125.680176 48.7587891 125.407715 49.2216797 125.135254 49.6845703 124.714844 50.2265625 124.146484 50.8476562L124.146484 50.8476562 120.006836 55.2597656 120.006836 57 128.77832 57zM134.631836 57.1757812C136.043945 57.1757812 137.116211 56.7070312 137.848633 55.7695312 138.581055 54.8320312 138.947266 53.4785156 138.947266 51.7089844L138.947266 51.7089844 138.947266 49.3535156C138.929688 47.6367188 138.551758 46.3198242 137.813477 45.402832 137.075195 44.4858398 136.008789 44.0273438 134.614258 44.0273438 133.219727 44.0273438 132.151855 44.4902344 131.410645 45.4160156 130.669434 46.3417969 130.298828 47.6982422 130.298828 49.4853516L130.298828 49.4853516 130.298828 51.8408203C130.316406 53.5576172 130.694336 54.8759766 131.432617 55.7958984 132.170898 56.7158203 133.237305 57.1757812 134.631836 57.1757812zM134.631836 55.1279297C134.004883 55.1279297 133.549316 54.8745117 133.265137 54.3676758 132.980957 53.8608398 132.838867 53.0859375 132.838867 52.0429688L132.838867 52.0429688 132.838867 48.9316406C132.856445 47.953125 133.007324 47.2338867 133.291504 46.7739258 133.575684 46.3139648 134.016602 46.0839844 134.614258 46.0839844 135.229492 46.0839844 135.682129 46.3256836 135.972168 46.809082 136.262207 47.2924805 136.407227 48.0644531 136.407227 49.125L136.407227 49.125 136.407227 52.1660156C136.395508 53.1679688 136.251953 53.9121094 135.976562 54.3984375 135.701172 54.8847656 135.25293 55.1279297 134.631836 55.1279297zM146.831055 57L146.831055 44.1855469 146.558594 44.1855469 141.258789 46.0839844 141.258789 48.1494141 144.291016 47.2089844 144.291016 57 146.831055 57zM154.741211 57L159.689453 45.6269531 159.689453 44.203125 150.654297 44.203125 150.654297 46.2597656 157.017578 46.2597656 152.060547 57 154.741211 57zM168.707031 57L168.707031 52.4912109 171.018555 52.4912109C172.536133 52.4912109 173.724121 52.1293945 174.58252 51.4057617 175.440918 50.6821289 175.870117 49.6933594 175.870117 48.4394531 175.870117 47.6132812 175.673828 46.8764648 175.28125 46.2290039 174.888672 45.581543 174.327637 45.0820312 173.598145 44.7304688 172.868652 44.3789062 172.023438 44.203125 171.0625 44.203125L171.0625 44.203125 166.070312 44.203125 166.070312 57 168.707031 57zM171.0625 50.3554688L168.707031 50.3554688 168.707031 46.3388672 171.124023 46.3388672C171.774414 46.3505859 172.28418 46.5498047 172.65332 46.9365234 173.022461 47.3232422 173.207031 47.8300781 173.207031 48.4570312 173.207031 49.0664062 173.023926 49.5351562 172.657715 49.8632812 172.291504 50.1914062 171.759766 50.3554688 171.0625 50.3554688L171.0625 50.3554688zM186.258789 57L186.258789 54.8818359 180.317383 54.8818359 180.317383 51.4541016 185.379883 51.4541016 185.379883 49.3886719 180.317383 49.3886719 180.317383 46.3388672 186.241211 46.3388672 186.241211 44.203125 177.680664 44.203125 177.680664 57 186.258789 57zM192.446289 57.1757812C193.864258 57.1757812 194.992188 56.8608398 195.830078 56.230957 196.667969 55.6010742 197.086914 54.7324219 197.086914 53.625 197.086914 52.6289062 196.744141 51.796875 196.058594 51.1289062 195.373047 50.4609375 194.280273 49.9013672 192.780273 49.4501953 191.96582 49.2041016 191.349121 48.9404297 190.930176 48.6591797 190.51123 48.3779297 190.301758 48.0292969 190.301758 47.6132812 190.301758 47.1679688 190.480469 46.809082 190.837891 46.5366211 191.195312 46.2641602 191.696289 46.1279297 192.34082 46.1279297 193.008789 46.1279297 193.527344 46.2905273 193.896484 46.6157227 194.265625 46.940918 194.450195 47.3964844 194.450195 47.9824219L194.450195 47.9824219 197.086914 47.9824219C197.086914 47.2148438 196.88916 46.5292969 196.493652 45.9257812 196.098145 45.3222656 195.542969 44.8549805 194.828125 44.5239258 194.113281 44.1928711 193.298828 44.0273438 192.384766 44.0273438 191.476562 44.0273438 190.657715 44.1796875 189.928223 44.484375 189.19873 44.7890625 188.63916 45.2124023 188.249512 45.7543945 187.859863 46.2963867 187.665039 46.9130859 187.665039 47.6044922 187.665039 48.9345703 188.391602 49.9921875 189.844727 50.7773438 190.37793 51.0644531 191.101562 51.355957 192.015625 51.6518555 192.929688 51.9477539 193.5625 52.2290039 193.914062 52.4956055 194.265625 52.762207 194.441406 53.1445312 194.441406 53.6425781 194.441406 54.0996094 194.265625 54.4555664 193.914062 54.7104492 193.5625 54.965332 193.073242 55.0927734 192.446289 55.0927734 190.758789 55.0927734 189.915039 54.3867188 189.915039 52.9746094L189.915039 52.9746094 187.269531 52.9746094C187.269531 53.8007812 187.481934 54.5273438 187.906738 55.1542969 188.331543 55.78125 188.948242 56.2749023 189.756836 56.6352539 190.56543 56.9956055 191.461914 57.1757812 192.446289 57.1757812zM204.583984 57L204.583984 46.3388672 208.503906 46.3388672 208.503906 44.203125 198.080078 44.203125 198.080078 46.3388672 201.947266 46.3388672 201.947266 57 204.583984 57zM218.584961 57L218.584961 54.8818359 212.643555 54.8818359 212.643555 51.4541016 217.706055 51.4541016 217.706055 49.3886719 212.643555 49.3886719 212.643555 46.3388672 218.567383 46.3388672 218.567383 44.203125 210.006836 44.203125 210.006836 57 218.584961 57z"/>
    <g fill-rule="nonzero" transform="translate(58 64)">
      <path fill="#FFF" d="M149.150098,0 C150.516193,0.374496152 153.399935,1.55569806 155.341725,5.08904361 C156.631022,7.43472971 156.979925,9.83461265 156.999144,11.6779875 C158.620228,13.6472454 160.401622,16.0321594 162.229364,18.8072066 C164.410951,22.1429648 166.669329,26.0578739 168.662089,30.5506803 C169.141711,31.6814033 169.670429,32.8196477 170.114803,34.0193173 C170.346431,34.6147646 170.580577,35.2164797 170.815982,35.8232091 C171.029987,36.43746 171.24525,37.0579787 171.463032,37.6835117 C171.571293,37.996905 171.680813,38.3102983 171.790333,38.6261988 C171.889782,38.9446064 171.987972,39.2655211 172.08868,39.5876894 C172.28632,40.232026 172.485218,40.881377 172.685375,41.5344886 C172.871685,42.1926145 173.04163,42.860769 173.222904,43.5314307 C173.312283,43.8673883 173.401661,44.2033459 173.492298,44.5418107 C173.581677,44.8802755 173.650914,45.2237545 173.73148,45.5672336 C173.887577,46.2541917 174.044934,46.9461641 174.20229,47.6418972 C174.34454,48.341391 174.470425,49.0484063 174.606381,49.7591823 C174.6731,50.1139435 174.739819,50.4712119 174.807797,50.8284803 C174.861928,51.1882558 174.917317,51.5480313 174.972707,51.9103139 C175.080968,52.6373864 175.190488,53.3694731 175.300008,54.1053206 C175.448552,55.5707477 175.623532,57.0462033 175.755712,58.5467304 C175.797254,59.3026351 175.840054,60.063554 175.882855,60.8269801 C175.904256,61.2093199 175.925656,61.5916597 175.945798,61.9752531 L175.97601,62.5518968 L175.979787,63.1285404 C176.078427,67.5933217 175.817245,72.178201 175.169797,76.7821591 C175.45113,76.1751262 175.796836,75.563677 176.218455,74.9595884 C178.698061,71.4065482 182.216265,70.3234799 183.882111,70 C184.115891,71.7260992 184.247472,75.5083255 181.780641,79.0404116 C179.302313,82.5934518 175.785386,83.6765201 174.118263,84 C174.084596,83.7525847 174.053104,83.4630156 174.031095,83.1380693 C173.280856,86.6134174 172.270895,90.0628875 171.041893,93.4486314 C171.476645,92.7710819 172.004194,92.1006342 172.642245,91.4627782 C175.629876,88.4775792 179.138915,88.0078939 181,88 C180.925151,89.7484925 180.385982,93.5099222 177.357755,96.5372218 C174.368855,99.5237364 170.859816,99.9921061 169,100 C169.021939,99.4875108 169.083767,98.802091 169.236468,98.0129127 C168.864199,98.8870625 168.476461,99.7556123 168.075465,100.6179 L167.558078,101.741102 C167.386874,102.11592 167.184199,102.475696 166.997889,102.842993 L165.858629,105.037999 C165.674837,105.407804 165.468386,105.763818 165.259417,106.11858 L164.640062,107.186624 L164.020708,108.254668 C163.812997,108.60943 163.614099,108.970459 163.383729,109.311431 C162.938096,110.002149 162.493722,110.692868 162.049348,111.382333 C161.825273,111.725812 161.610009,112.075559 161.377122,112.412771 L160.664613,113.413122 C160.188767,114.080023 159.71418,114.74567 159.240853,115.410064 C158.749901,116.061922 158.237549,116.69623 157.737785,117.33806 C156.757141,118.638015 155.674529,119.845206 154.622131,121.068694 C154.106002,121.689212 153.542037,122.264602 152.99066,122.847514 C152.438025,123.430425 151.886649,124.01083 151.336531,124.589981 C150.761236,125.14406 150.1872,125.695632 149.615682,126.245951 C149.036611,126.788748 148.487752,127.360377 147.882245,127.866821 L146.992867,128.644193 L146.992867,128.644193 L146.107266,129.418745 C145.810177,129.67322 145.52316,129.940231 145.218518,130.183424 C144.912617,130.426617 144.607975,130.668557 144.304592,130.910497 C140.388695,134.067413 136.301329,136.797455 132.187256,139.095971 C132.570377,139.0496 132.966324,139.019391 133.375086,139.006711 C133.523947,139.002237 133.67022,139 133.816493,139 C137.896596,139 140.759918,140.779642 142,141.732662 C140.794868,142.795302 137.916013,144.860179 133.624914,144.993289 C133.476053,144.997763 133.32978,145 133.183507,145 C129.445606,145 126.730027,143.50636 125.346309,142.523037 C122.165394,143.944807 119.016201,145.115608 115.966248,146.068054 C116.37431,146.0236 116.797484,146 117.233959,146 C117.823819,146 118.422834,146.043281 119.014002,146.128569 C123.301277,146.744681 125.924912,149.388616 127,150.72395 C125.820794,151.530415 123.363424,152.897933 120.130981,152.994584 L119.768657,153 L119.768657,153 C119.178797,153 118.579782,152.956719 117.989922,152.871431 C113.673873,152.250227 111.065933,149.612657 110,148.279869 C110.42219,147.990512 111.00955,147.628472 111.738626,147.278679 L112.536243,147.082844 C111.943324,147.228259 111.355441,147.373673 110.775111,147.515327 C110.194781,147.658235 109.620745,147.798635 109.054263,147.937781 L108.63003,148.040574 L108.204539,148.12331 C107.921297,148.178467 107.640574,148.233625 107.361109,148.287528 C106.249544,148.501889 105.140497,148.725025 104.109498,148.914315 C103.115006,149.094829 102.124291,149.311698 101.180153,149.538594 C99.4709874,149.954337 97.8786948,150.414234 96.4222415,150.90343 C97.0638453,151.268401 97.6517007,151.643893 98.1848874,152.027924 C99.1856803,152.744991 99.9850557,153.515963 100.566648,154.24682 C101.153277,154.976423 101.485615,155.684715 101.689551,156.159834 L101.73905,156.302792 L101.73905,156.302792 L101.820556,156.545595 C101.902411,156.794927 101.938805,156.924538 101.938805,156.924538 C102.183023,157.793292 101.674444,158.69464 100.802055,158.939095 C99.9611373,159.173521 99.0887481,158.710937 98.8080226,157.899849 L98.7438208,157.713061 C98.7438208,157.713061 98.7010196,157.5877 98.6280058,157.336977 C98.5159673,157.091269 98.3686808,156.713931 97.9985763,156.237558 C97.6335072,155.764946 97.0770916,155.190791 96.278975,154.600339 C95.4833762,154.008633 94.467477,153.393109 93.253937,152.792628 C93.0101564,152.673067 92.7585423,152.554059 92.4993025,152.435768 C92.2391536,152.553673 91.9882151,152.67237 91.7450693,152.791617 C90.5315375,153.392078 89.5156452,154.007583 88.7200517,154.599269 C87.9219405,155.189702 87.3667875,155.763839 87.000462,156.236436 C86.6316188,156.712794 86.4830745,157.090119 86.3710368,157.33582 C86.2980235,157.586534 86.2552225,157.711892 86.2552225,157.711892 L86.19228,157.894913 C85.8989679,158.748597 84.9661597,159.203644 84.1088826,158.911561 C83.2830767,158.629507 82.8286317,157.752006 83.0602602,156.924648 C83.0602602,156.924648 83.1345323,156.65889 83.3095125,156.159968 C83.5134463,155.684864 83.844524,154.976595 84.4324071,154.247015 C85.0127372,153.516182 85.8121072,152.745235 86.8141521,152.028191 C87.3473353,151.644172 87.9351867,151.269048 88.5744703,150.904147 C87.1202702,150.41517 85.5279668,149.955258 83.8187895,149.539502 C82.8746453,149.312598 81.8839233,149.095722 80.8894248,148.915202 C79.8584193,148.725907 78.7493646,148.502763 77.6377922,148.288395 C77.3583255,148.23449 77.0776,148.179331 76.7943568,148.124172 L76.3688624,148.041434 L75.944627,147.938637 C75.3781405,147.799486 74.8041008,147.659081 74.2237668,147.51617 C73.6434329,147.373258 73.0568046,147.229092 72.4626232,147.083673 C71.8709595,146.931986 71.2830724,146.738929 70.6838556,146.565931 C66.8912284,145.465018 62.922884,144.026691 58.9097391,142.189488 L59,142.267338 C57.7586233,143.220358 54.8965964,145 50.8164928,145 L50.8164928,145 L50.5962747,144.998322 L50.5962747,144.998322 L50.3750857,144.993289 C46.0839869,144.860179 43.2051321,142.795302 42,141.732662 C43.2400822,140.779642 46.1034036,139 50.1835072,139 C50.3297799,139 50.4760527,139.002237 50.6249143,139.006711 C51.577437,139.036259 52.4603734,139.160991 53.2708637,139.348817 C49.0021028,136.999905 44.7564973,134.184929 40.6953185,130.910806 C40.3906747,130.668859 40.0860308,130.426912 39.781387,130.183711 C39.4767431,129.94051 39.1909821,129.67349 38.8926326,129.419006 C38.3034866,128.903771 37.7118229,128.387283 37.1176415,127.867033 C36.5121304,127.360573 35.962009,126.790179 35.3841928,126.246111 C34.8126708,125.695775 34.2386312,125.142931 33.6633326,124.590088 C33.1132113,124.010918 32.5618311,123.430495 32.009192,122.847565 C31.4578118,122.264635 30.893843,121.689226 30.3777109,121.068688 C29.3253048,119.845161 28.2426862,118.637931 27.2620351,117.337934 C26.7622681,116.696084 26.2486536,116.061756 25.7589575,115.409877 L25.048017,114.412314 L25.048017,114.412314 L23.6226739,112.412487 C23.3910439,112.075265 23.175779,111.725507 22.9504433,111.382017 C22.5060661,110.692529 22.06043,110.001788 21.6160528,109.311048 C21.3869405,108.970065 21.186782,108.609024 20.9790702,108.254251 L20.3597116,107.186173 L19.7403531,106.118094 C19.5326413,105.763322 19.3249296,105.407295 19.1411362,105.037479 L18.0018689,102.842402 C17.8155578,102.475094 17.6128815,102.115307 17.4416767,101.740476 L16.9242857,100.617239 C14.1447252,94.6400099 12.0021473,88.3619139 10.7319587,82.0086012 C9.43155741,75.6628102 8.88521264,69.2806643 9.01991055,63.1266761 L9.02368712,62.550014 L9.05389974,61.9733518 C9.07530034,61.5897461 9.09670094,61.207394 9.11684268,60.8250419 C9.15964389,60.0615914 9.20118623,59.3019016 9.24398743,58.5447192 C9.37742648,57.0441439 9.55114901,55.5686409 9.69969436,54.1031669 C9.80921509,53.3672958 9.91873581,52.6364392 10.0269977,51.9080898 C10.0823875,51.5470491 10.1365184,51.1860085 10.1919082,50.8262214 L10.3933256,49.7568892 L10.3933256,49.7568892 C10.5292824,49.047344 10.6551683,48.3390524 10.7974193,47.6395362 C10.9560356,46.9437807 11.1121341,46.2517861 11.2682326,45.564806 C11.3487995,45.2225695 11.4180368,44.8778258 11.5074158,44.5393502 C11.5980536,44.2008746 11.6874326,43.8649062 11.7768116,43.5289378 C11.9580873,42.8582546 12.1280332,42.1900787 12.3143443,41.5319317 C12.5145029,40.8775455 12.7134026,40.2281737 12.9110435,39.58507 C13.0104933,39.2628914 13.1099432,38.94322 13.209393,38.6235486 C13.3189137,38.307638 13.4284345,37.9942346 13.5366963,37.6808313 C13.7544789,37.0552782 13.9697438,36.4347396 14.1837498,35.820469 C14.4191564,35.2137201 14.6533042,34.6119857 14.8849342,34.0165193 C15.3293114,32.8180649 15.8567733,31.6785303 16.3376574,30.547771 C18.3304311,26.0548206 20.5875651,22.1410396 22.7704265,18.8039207 C24.2413858,16.5705174 25.6823256,14.5898067 27.0343568,12.8738957 C26.9080977,10.9641494 27.0663681,7.98528476 28.6582747,5.08904361 C30.6000649,1.55569806 33.4838075,0.374496152 34.8499016,0 C34.9823423,0.925876662 35.1042032,2.46122128 34.8584007,4.24895224 C34.9835411,4.12832057 35.0650181,4.05145663 35.1000893,4.01850574 L35.0762198,4.04234029 C35.0336591,4.08380876 34.960274,4.15564192 34.8575012,4.25741532 C34.6570239,5.70697367 34.2151724,7.3212737 33.3417253,8.91095639 C31.3999351,12.4443019 28.517245,13.6242213 27.1500984,14 C27.1157504,13.7596938 27.082114,13.4784208 27.0554181,13.1624097 C25.7715987,14.853254 24.4125924,16.7919206 23.0259748,18.9706513 C20.9047976,22.3290816 18.7194185,26.2591596 16.8097295,30.7546172 C16.350246,31.8853765 15.8429259,33.0249111 15.4212081,34.2221119 C15.2009078,34.8175783 14.9780898,35.4180591 14.7540129,36.0235544 C14.5513366,36.6378249 14.3474015,37.2558563 14.1409486,37.8801558 C14.0377222,38.1923056 13.9344957,38.5057089 13.8300105,38.8203659 C13.7368549,39.1387837 13.6436993,39.4572015 13.5492849,39.7781265 C13.3629738,40.4199766 13.1766627,41.0668411 12.9878338,41.7187201 C12.8128525,42.3743599 12.6554951,43.0400286 12.4855491,43.7069509 C12.4024644,44.0404121 12.3181209,44.3763805 12.2337774,44.7123489 C12.1506927,45.0483173 12.0877497,45.3918073 12.013477,45.7327902 C11.8699671,46.4160095 11.7251984,47.1029896 11.5791707,47.7949842 C11.4495083,48.4907397 11.3362109,49.1927632 11.2128428,49.8985475 C11.1524175,50.2508129 11.0919923,50.6055855 11.0303082,50.9603581 C10.9812127,51.3176379 10.9333761,51.6749177 10.8842806,52.0334511 C10.7886073,52.7480108 10.692934,53.4663313 10.5972608,54.1884126 C10.4713749,55.6538866 10.3203118,57.1381649 10.2120499,58.6324721 C10.1830962,59.3771185 10.1528836,60.124272 10.1239298,60.8764401 C10.1088235,61.2512705 10.0937172,61.6286081 10.0786109,62.0046921 L10.0584692,62.5713254 L10.0647634,63.1404659 C10.0269977,69.2204909 10.666498,75.5036013 12.0436897,81.7265382 C13.3919276,87.9582504 15.5961895,94.0921808 18.4135158,99.9102006 L18.9372011,101.003351 C19.1109236,101.368153 19.3161176,101.717911 19.5036876,102.075191 L20.6530258,104.208841 C20.838078,104.567374 21.0470486,104.913372 21.2560192,105.258115 L21.8791544,106.294854 L22.5022895,107.331592 C22.7112601,107.676336 22.9114187,108.026094 23.1417898,108.355794 C23.5886848,109.025224 24.0343208,109.694653 24.4799569,110.362829 C24.7052926,110.695037 24.9205575,111.033512 25.1521875,111.360705 L25.8659605,112.328495 C26.3405503,112.972852 26.8151402,113.61721 27.2884711,114.260313 C27.7781672,114.890881 28.2905228,115.50139 28.7877721,116.121929 C29.7646466,117.37805 30.8434887,118.540149 31.8883416,119.718546 C32.4006972,120.317773 32.9608894,120.869363 33.508493,121.430982 C34.0560966,121.991347 34.6037003,122.549205 35.1487862,123.105809 C35.7190493,123.637341 36.2867946,124.166366 36.8532811,124.695391 C37.4260619,125.215641 37.969889,125.764723 38.567847,126.248618 C39.1544752,126.745049 39.7385858,127.240226 40.3214374,127.732896 C40.6147516,127.976097 40.8979948,128.231835 41.1976032,128.465007 C41.4984705,128.696925 41.7993378,128.92759 42.0989462,129.158255 C46.8712804,132.88274 51.8790211,135.962868 56.8565493,138.397386 C61.8353363,140.836917 66.7826518,142.630838 71.4429475,143.904509 C72.0257992,144.062465 72.5973211,144.241731 73.1726197,144.378375 C73.749177,144.510005 74.3194401,144.64038 74.8834089,144.769503 C75.4473777,144.898625 76.0037934,145.026493 76.5539147,145.153108 L76.9655616,145.247129 L77.3784673,145.321093 C77.6528985,145.369983 77.9260709,145.418874 78.1967256,145.466512 C79.2881563,145.658315 80.3204206,145.851371 81.3791209,146.02813 C82.4743282,146.209904 83.5002982,146.418004 84.501091,146.642401 C87.5117997,147.326126 90.1913471,148.141478 92.5006625,149.053331 C94.8076386,148.141869 97.4871679,147.326544 100.497856,146.64284 C101.498642,146.418451 102.524605,146.210357 103.619805,146.028589 C104.678499,145.851836 105.710756,145.658785 106.802179,145.466989 C107.072832,145.418099 107.346003,145.370463 107.620432,145.321574 L108.033335,145.247613 L108.444979,145.153595 C108.995097,145.026984 109.551509,144.89912 110.115474,144.770002 C110.679439,144.640884 111.249698,144.510512 111.826251,144.378887 C112.401546,144.240994 112.973064,144.062987 113.555912,143.905036 C118.216176,142.631406 123.163458,140.837543 128.142212,138.398089 C133.120965,135.96365 138.127413,132.883621 142.899715,129.159255 C143.199322,128.928597 143.500187,128.69794 143.801052,128.466029 C144.101917,128.232864 144.3839,127.978389 144.677212,127.733942 C145.26006,127.241288 145.844166,126.746126 146.430791,126.249712 C147.028745,125.765832 147.572568,125.216767 148.145345,124.696534 C148.711828,124.16878 149.279569,123.638519 149.849829,123.107004 C150.394911,122.550417 150.941252,121.991323 151.488852,121.43223 C152.036452,120.871883 152.59664,120.319057 153.108992,119.719849 C154.155097,118.54149 155.232673,117.379428 156.209541,116.123347 C156.708046,115.504082 157.219139,114.892338 157.708832,114.261791 C158.18216,113.618708 158.656746,112.975625 159.131333,112.330035 L159.845101,111.362276 C160.077988,111.035094 160.293252,110.696629 160.517327,110.364432 C160.96296,109.696277 161.409852,109.026869 161.855485,108.357461 C162.085855,108.026518 162.286012,107.676771 162.494981,107.333292 L163.118112,106.296587 L163.741243,105.259882 C163.951471,104.915149 164.16044,104.569163 164.344232,104.210641 L165.493563,102.07706 L165.877652,101.365866 C165.940734,101.246776 166.002138,101.126851 166.060045,101.005255 L166.583727,99.9121387 C169.401035,94.0943055 171.605282,87.9605719 172.95351,81.7290595 C174.330693,75.5050686 174.971448,69.2234133 174.932423,63.1435833 L174.938718,62.5744611 L174.918576,62.007846 C174.90347,61.6305205 174.888364,61.2544485 174.873257,60.8796301 C174.844304,60.1287398 174.814091,59.3803566 174.785138,58.6357341 C174.676877,57.1414749 174.525815,55.6572442 174.39993,54.1918171 C174.304257,53.469759 174.208584,52.7514615 174.112912,52.0369248 C174.063817,51.6784029 174.01598,51.319881 173.966885,50.9638662 C173.90646,50.6091049 173.844777,50.2555973 173.784352,49.9020897 C173.660984,49.196328 173.547688,48.494327 173.418026,47.7985938 C173.272,47.1066214 173.127232,46.4184098 172.983723,45.7364659 C172.909451,45.395494 172.846508,45.0532686 172.763424,44.7160574 C172.679081,44.3800997 172.595997,44.0441421 172.511654,43.7106917 C172.342968,43.0437907 172.184353,42.3781434 172.009373,41.7225246 C171.820545,41.0706665 171.632976,40.4238227 171.447925,39.7819933 C171.353512,39.4610785 171.260357,39.1414174 171.167202,38.8242633 C171.063976,38.5096165 170.959491,38.1962232 170.856266,37.8840835 C170.649814,37.259804 170.44588,36.6405388 170.243205,36.0275415 C170.01913,35.4220657 169.796314,34.8203506 169.576015,34.2261569 C169.153041,33.0277409 168.646983,31.8894964 168.187503,30.7587734 C166.277827,26.2622064 164.092462,22.3322544 161.971299,18.9751854 C160.240665,16.2559848 158.553042,13.9107367 156.999617,11.9494563 C156.993986,12.7805457 156.923581,13.4845244 156.849902,14 C155.482755,13.6242213 152.600065,12.4443019 150.658275,8.91095639 C148.704908,5.35580799 148.910137,1.67753756 149.150098,0 Z M66.7660409,146 C70.179643,146 72.7797353,147.443535 74,148.279869 C72.9340668,149.612657 70.3261271,152.250227 66.0100785,152.871431 C65.4202185,152.956719 64.8212033,153 64.2313433,153 C60.8216649,153 58.2228804,151.560284 57,150.72395 C58.0750885,149.388616 60.6987229,146.744681 64.9859978,146.128569 C65.5771657,146.043281 66.176181,146 66.7660409,146 Z M62.0020015,131 C63.7214755,131.126806 67.1892123,131.776364 69.9581674,134.79642 C72.7205796,137.807419 73.0294044,141.335993 72.9979985,143 C71.2772159,142.873194 67.8107877,142.223636 65.0418326,139.20358 C62.2794204,136.192581 61.9705956,132.664007 62.0020015,131 Z M121.997999,131 C122.029404,132.664007 121.72058,136.192581 118.958167,139.20358 C116.187904,142.223636 112.721475,142.873194 111.002001,143 C110.970596,141.335993 111.27942,137.807419 114.041833,134.79642 C116.810788,131.776364 120.278525,131.126806 121.997999,131 Z M131.781059,124 C132.076533,125.657583 132.378906,129.24112 130.479591,132.757564 C128.582576,136.268746 125.650826,137.560609 124.218292,138 C123.922817,136.337155 123.622744,132.75888 125.520909,129.247698 C127.43172,125.71152 130.354273,124.431498 131.781059,124 Z M149.779857,131 C152.65357,131 154.888681,132.071227 156,132.736425 C155.073277,134.097673 152.76333,136.836213 148.724665,137.726023 C147.897724,137.908674 147.054568,138 146.220143,138 C143.345182,138 141.110072,136.928773 140,136.262341 C140.926723,134.901093 143.23667,132.162553 147.275335,131.273977 C148.102276,131.09256 148.945432,131 149.779857,131 Z M52.2189412,124 C53.6457265,124.431498 56.5682795,125.71152 58.4790911,129.247698 C60.377256,132.75888 60.0771827,136.337155 59.7817082,138 C58.3491743,137.560609 55.4185734,136.268746 53.5204086,132.757564 C51.621094,129.24112 51.9234667,125.657583 52.2189412,124 Z M34.2201434,131 C35.0545681,131 35.8977237,131.09256 36.7246648,131.273977 C40.7633302,132.162553 43.0732772,134.901093 44,136.262341 C42.8899283,136.928773 40.6548176,138 37.7798566,138 C36.9441846,138 36.1022763,137.908674 35.2753352,137.726023 C31.2366698,136.836213 28.9267228,134.097673 28,132.736425 C29.111319,132.071227 31.3464297,131 34.2201434,131 Z M40.8186347,116 C42.1945379,116.666324 44.9475263,118.383158 46.2926963,121.893663 C47.6402303,125.40897 46.7501486,128.566504 46.1792197,130 C44.8068627,129.34208 42.0609666,127.638453 40.7063402,124.101535 C39.3611703,120.589829 40.2488879,117.434697 40.8186347,116 Z M143.181365,116 C143.751112,117.434697 144.63883,120.589829 143.29366,124.101535 C141.937851,127.638453 139.193137,129.34208 137.82078,130 C137.249851,128.566504 136.35977,125.40897 137.707304,121.893663 C139.052474,118.383158 141.805462,116.666324 143.181365,116 Z M162.692848,119 C164.574204,119 166.107069,119.392472 167,119.689833 C166.342704,121.023583 164.584126,123.777448 160.79785,125.194284 C159.51203,125.675418 158.159909,125.943141 156.770419,125.991874 L156.305912,126 L156.305912,126 C154.425796,126 152.891691,125.607528 152,125.310167 C152.657296,123.976417 154.415874,121.222552 158.20215,119.805716 C159.630839,119.271123 161.141381,119 162.692848,119 Z M21.3071517,119 C22.8586193,119 24.3691608,119.271123 25.7978504,119.805716 C29.5841257,121.222552 31.3427036,123.976417 32,125.310167 C31.1083092,125.607528 29.5742042,126 27.6940885,126 C26.1426209,126 24.6320794,125.728877 23.2021496,125.194284 C19.4158743,123.777448 17.6572964,121.023583 17,119.689833 C17.892931,119.392472 19.4257958,119 21.3071517,119 Z M32.6720682,106 C33.8556642,106.925368 36.1571009,109.156995 36.8237239,112.920729 C37.4892132,116.683242 36.1117524,119.671767 35.3272232,121 C34.1436272,120.075853 31.8421905,117.843005 31.1767012,114.080492 C30.5100782,110.315537 31.8886728,107.327012 32.6720682,106 Z M151.327932,106 C152.111327,107.327012 153.489922,110.315537 152.823299,114.080492 C152.157809,117.843005 149.856373,120.075853 148.672777,121 C147.888248,119.671767 146.510787,116.683242 147.176276,112.920729 C147.842899,109.156995 150.144336,106.925368 151.327932,106 Z M10.2268662,104 C12.6658149,104 14.9067348,104.619375 16.8870232,105.840259 C20.4196021,108.017602 21.6167184,111.272896 22,112.817761 C21.4467969,112.909476 20.6776784,113 19.7718562,113 C17.3341851,113 15.0932652,112.381816 13.1129768,111.159741 C9.58039788,108.982398 8.38328162,105.727104 8,104.182239 C8.55320314,104.089333 9.32104399,104 10.2268662,104 Z M173.773134,104 C174.678956,104 175.446797,104.089333 176,104.182239 C175.616718,105.727104 174.419602,108.982398 170.887023,111.159741 C168.908012,112.381816 166.667093,113 164.228144,113 C163.322322,113 162.553203,112.909476 162,112.817761 C162.383282,111.272896 163.580398,108.017602 167.112977,105.840259 C169.093265,104.619375 171.334185,104 173.773134,104 Z M24.9615481,93 C26.0121676,94.185422 27.9785298,96.9411765 27.9998261,100.983376 C28.0211225,104.997442 26.0807891,107.79156 25.0420009,109 C23.9901983,107.805627 22.0214698,105.033248 22.0001734,101.019182 C21.9788771,97.0012788 23.923943,94.2046036 24.9615481,93 Z M159.038452,93 C160.076057,94.2046036 162.021123,97.0012788 161.999827,101.019182 C161.97853,105.033248 160.009802,107.805627 158.957999,109 C157.919211,107.79156 155.978878,104.997442 156.000174,100.983376 C156.02147,96.9411765 157.987832,94.185422 159.038452,93 Z M3,88 C4.86108468,88.0078939 8.37012369,88.4775792 11.3577545,91.4627782 C14.3859816,94.4900778 14.9251507,98.2515075 15,100 C13.140184,99.9921061 9.62987631,99.5237364 6.64224548,96.5372218 C3.6140184,93.5099222 3.07484935,89.7484925 3,88 Z M163.744222,80 C164.921581,80.9354446 167.211396,83.1912302 167.841067,86.954933 C168.475292,90.7442144 167.059956,93.6930572 166.257212,95 C165.079853,94.0645554 162.787761,91.8087698 162.156952,88.0426309 C161.527281,84.2801462 162.942616,81.3154689 163.744222,80 Z M20.2557775,80 C21.0573835,81.3154689 22.472719,84.2801462 21.8430484,88.0426309 C21.2122392,91.8087698 18.9201472,94.0645554 17.7427884,95 C16.9400438,93.6930572 15.5247083,90.7442144 16.1589335,86.954933 C16.7886041,83.1912302 19.0784188,80.9354446 20.2557775,80 Z M0.11788934,70 C1.78373489,70.3234799 5.30193936,71.4065482 7.78154535,74.9595884 C10.2458215,78.4903648 10.1167951,82.2725912 9.88173712,84 C8.21461409,83.6765201 4.69640961,82.5934518 2.21935861,79.0404116 C-0.24747249,75.5083255 -0.115891131,71.7260992 0.11788934,70 Z M163.874357,68 C165.25276,68.6780559 168.011951,70.4192364 169.329541,73.9326898 C170.647132,77.4449475 169.717068,80.5769198 169.125643,82 C167.744855,81.3207483 164.988049,79.5795678 163.670459,76.0673102 C162.352868,72.5550525 163.282932,69.4230802 163.874357,68 Z M20.1256428,68 C20.7170682,69.4230802 21.6471324,72.5550525 20.3295415,76.0673102 C19.0119505,79.5795678 16.2551448,81.3207483 14.8743572,82 C14.2829318,80.5769198 13.3528676,77.4449475 14.6704585,73.9326898 C15.9880495,70.4192364 18.7472399,68.6780559 20.1256428,68 Z M183.385151,54 C183.895023,55.5936791 184.651332,59.1479365 182.943263,62.9304026 C181.224268,66.7393461 178.120122,68.3960662 176.616002,69 C176.106131,67.4063209 175.347393,63.8495419 177.056677,60.0645541 C178.763532,56.2833487 181.877389,54.6127595 183.385151,54 Z M0.61484868,54 C2.12261114,54.6127595 5.2364684,56.2833487 6.9433235,60.0645541 C8.65260655,63.8495419 7.8938694,67.4063209 7.38399803,69 C5.88109149,68.3960662 2.77694606,66.7393461 1.0567372,62.9304026 C-0.651331875,59.1479365 0.104977316,55.5936791 0.61484868,54 Z M163.24609,53 C164.687508,53.454817 167.640088,54.7761389 169.523229,58.2892084 C171.407534,61.8022778 171.069266,65.3532487 170.753084,67 C169.309342,66.545183 166.359086,65.2238611 164.475945,61.7107916 C162.592803,58.1977222 162.931071,54.6467513 163.24609,53 Z M20.7539096,53 C21.0689289,54.6467513 21.407197,58.1977222 19.5240553,61.7107916 C17.6409136,65.2238611 14.6906583,66.545183 13.2469163,67 C12.9307345,65.3532487 12.5924665,61.8022778 14.4767706,58.2892084 C16.3599123,54.7761389 19.3124925,53.454817 20.7539096,53 Z M180.512342,37 C181.29001,38.4691951 182.653957,41.816744 181.637659,45.8529389 C180.687151,49.6356912 178.199307,51.8284041 176.761195,52.8180064 L176.488336,53 L176.488336,53 C175.709457,51.529546 174.346721,48.181997 175.361808,44.1470611 C176.376894,40.1121253 179.139916,37.886301 180.512342,37 Z M3.48765766,37 C4.8600837,37.886301 7.62310559,40.1121253 8.6381921,44.1470611 C9.65327862,48.181997 8.29054314,51.529546 7.51166411,53 L7.51166411,53 L7.23880472,52.8180064 C5.80069294,51.8284041 3.31284898,49.6356912 2.36234098,45.8529389 C1.34604315,41.816744 2.70998995,38.4691951 3.48765766,37 Z M160.005122,40 C161.687602,40.1460758 165.240531,40.8213561 168.008481,43.8453817 C170.785697,46.8770956 171.050445,50.3572878 170.993524,52 C169.313693,51.8552056 165.756792,51.1812066 162.984871,48.1546183 C160.227511,45.1446877 159.95482,41.6504004 160.005122,40 Z M23.9948776,40 C24.0451798,41.6504004 23.7724885,45.1446877 21.015129,48.1546183 C18.2432083,51.1812066 14.6863071,51.8552056 13.0064755,52 C12.9495545,50.3572878 13.2143034,46.8770956 15.9915191,43.8453817 C18.7594686,40.8213561 22.3123985,40.1460758 23.9948776,40 Z M173.533162,21 C174.472445,22.3376326 176.240836,25.4643975 175.972628,29.7510494 C175.699969,34.0675418 173.565436,36.8440052 172.469234,38 C171.52995,36.6636648 169.758221,33.5356025 170.027542,29.2450584 C170.296862,24.9584065 172.435847,22.1650767 173.533162,21 Z M10.4668383,21 C11.564153,22.1650767 13.7031376,24.9584065 13.9724582,29.2450584 C14.2417789,33.5356025 12.4700497,36.6636648 11.5307661,38 C10.4345643,36.8440052 8.29891838,34.0675418 8.02737194,29.7510494 C7.75916419,25.4643975 9.52755471,22.3376326 10.4668383,21 Z M156.06691,27 C157.835766,27 160.456204,27.4226076 162.895377,29.4328838 C165.928224,31.9325626 166.76764,35.3172768 167,36.9473346 C166.703163,36.9768786 166.340633,37 165.92944,37 C164.160584,37 161.540146,36.5773924 159.099757,34.5671162 C156.088808,32.0854207 155.238443,28.6891458 155,27.0526654 C155.296837,27.0231214 155.658151,27 156.06691,27 Z M27.93309,27 C28.3418491,27 28.703163,27.0231214 29,27.0526654 C28.7615572,28.6891458 27.9111922,32.0854207 24.9002433,34.5671162 C22.459854,36.5773924 19.8394161,37 18.0705596,37 C17.6593674,37 17.296837,36.9768786 17,36.9473346 C17.2323601,35.3172768 18.0717762,31.9325626 21.1046229,29.4328838 C23.5437956,27.4226076 26.1642336,27 27.93309,27 Z M151.589533,16.1011409 C153.563367,16.3361112 155.381371,16.9655395 156.99297,17.9748163 C160.529194,20.1881638 161.652802,23.349915 162,24.8814833 C161.171646,24.98862 159.893575,25.0750599 158.410467,24.8997452 C156.436633,24.6647749 154.618629,24.0353466 153.00703,23.0260698 C149.470806,20.8127223 148.347198,17.6509711 148,16.1194028 C148.828354,16.0110486 150.107791,15.9246087 151.589533,16.1011409 Z M32.4104667,16.1011409 C33.8922086,15.9246087 35.1716462,16.0110486 36,16.1194028 C35.6528022,17.6509711 34.5291935,20.8127223 30.9929701,23.0260698 C29.3813708,24.0353466 27.5633665,24.6647749 25.5895333,24.8997452 C24.1064245,25.0750599 22.8283538,24.98862 22,24.8814833 C22.3471978,23.349915 23.4708065,20.1881638 27.0070299,17.9748163 C28.6186292,16.9655395 30.4366335,16.3361112 32.4104667,16.1011409 Z M162.859172,7 C164.217129,7.94709858 166.939267,10.2949584 167.765742,14.333178 C168.59595,18.3937699 167.020172,21.6017245 166.141421,23 C164.782219,22.0516585 162.061325,19.7037986 161.234851,15.666822 C160.403397,11.6049872 161.979176,8.39703255 162.859172,7 Z M21.1409544,7 C22.0208908,8.39703255 23.596562,11.6049872 22.7651652,15.666822 C21.9387468,19.7037986 19.2180381,22.0516585 17.8589283,23 C16.9802365,21.6017245 15.4033207,18.3937699 16.2347175,14.333178 C17.0611359,10.2949584 19.7830892,7.94709858 21.1409544,7 Z" opacity=".2"/>
      <path fill="#FEB838" stroke="#FECD38" d="M96.9210725,35.5 C104.487626,35.5 110.262094,38.0159222 114.2644,43.010185 C118.14571,47.853462 120.195525,54.7559013 120.373144,63.7398475 L120.382353,64.355615 L120.382348,76.8980228 L120.379457,77.5251117 C120.293854,86.7774206 118.304885,93.8698055 114.455232,98.8203028 C110.484146,103.926958 104.677588,106.5 97.0142217,106.5 C89.4475002,106.5 83.6728264,103.976171 79.6704078,98.9658117 C75.7892714,94.1072775 73.7397508,87.1971577 73.5621492,78.2133402 L73.5529412,77.5975936 L73.5529463,65.0552312 L73.5557461,64.4357074 C73.6405549,55.0848558 75.6551044,47.9733822 79.5536081,43.0814349 C83.5718692,38.0392127 89.3546303,35.5 96.9210725,35.5 Z M97.8545639,48.6333333 C94.7622333,48.6333333 92.4677196,49.7547533 90.9937453,52.0359774 C89.4656858,54.4009073 88.6766791,58.1049338 88.5822647,63.1304802 L88.5822647,63.1304802 L88.5823529,79.4965986 L88.5849542,80.0384348 L88.5925375,80.5612409 C88.6865331,85.3981662 89.4310513,89.0421938 90.8599684,91.479059 C92.3344828,93.9936856 94.7055128,95.2333333 97.9513185,95.2333333 C101.162102,95.2333333 103.495108,94.0499611 104.922823,91.6391008 C106.406534,89.133686 107.160486,85.29532 107.223567,80.1381023 L107.223567,80.1381023 L107.223529,64.1387755 L107.221043,63.6056638 L107.213816,63.0922599 C107.121106,58.1737255 106.365298,54.5421284 104.905328,52.2154148 C103.399339,49.8153636 101.041921,48.6333333 97.8545639,48.6333333 Z M153.03872,35.5 C160.605273,35.5 166.379741,38.0159222 170.382047,43.010185 C174.263357,47.853462 176.313172,54.7559013 176.490791,63.7398475 L176.5,64.355615 L176.499995,76.8980228 L176.497104,77.5251117 C176.411501,86.7774206 174.422532,93.8698055 170.572879,98.8203028 C166.601793,103.926958 160.795235,106.5 153.131869,106.5 C145.565147,106.5 139.790473,103.976171 135.788055,98.9658117 C131.906919,94.1072775 129.857398,87.1971577 129.679796,78.2133402 L129.670588,77.5975936 L129.670593,65.0552312 L129.673393,64.4357074 C129.758202,55.0848558 131.772751,47.9733822 135.671255,43.0814349 C139.689516,38.0392127 145.472277,35.5 153.03872,35.5 Z M152.101623,48.6333333 C149.009292,48.6333333 146.714778,49.7547533 145.240804,52.0359774 C143.712745,54.4009073 142.923738,58.1049338 142.829324,63.1304802 L142.829324,63.1304802 L142.829412,79.4965986 L142.832013,80.0384348 L142.839596,80.5612409 C142.933592,85.3981662 143.67811,89.0421938 145.107027,91.479059 C146.581542,93.9936856 148.952572,95.2333333 152.198377,95.2333333 C155.409161,95.2333333 157.742166,94.0499611 159.169882,91.6391008 C160.653593,89.133686 161.407545,85.29532 161.470626,80.1381023 L161.470626,80.1381023 L161.470588,64.1387755 L161.468102,63.6056638 L161.460875,63.0922599 C161.368165,58.1737255 160.612357,54.5421284 159.152387,52.2154148 C157.646398,49.8153636 155.28898,48.6333333 152.101623,48.6333333 Z M66.1352941,36.4333333 L66.1352941,44.6192127 L39.3257236,105.566667 L23.784627,105.566667 L50.4678039,48.3833333 L16.5,48.3833333 L16.5,36.4333333 L66.1352941,36.4333333 Z"/>
    </g>
  </g>
</svg>
