<svg xmlns="http://www.w3.org/2000/svg" width="369" height="321" viewBox="0 0 369 321">
  <defs>
    <linearGradient id="risipa-a" x1="38.927%" x2="62.486%" y1="-15.028%" y2="132.242%">
      <stop offset="0%" stop-color="#6DE19D"/>
      <stop offset="100%" stop-color="#5975AD"/>
    </linearGradient>
    <linearGradient id="risipa-b" x1="55.715%" x2="44.265%" y1="37.839%" y2="62.148%">
      <stop offset="0%" stop-color="#42363F"/>
      <stop offset="100%" stop-color="#594469"/>
    </linearGradient>
    <linearGradient id="risipa-c" x1="-11.329%" x2="172.044%" y1="38.004%" y2="71.821%">
      <stop offset="0%" stop-color="#6DE19D"/>
      <stop offset="100%" stop-color="#5975AD"/>
    </linearGradient>
    <linearGradient id="risipa-d" x1="67.976%" x2="32.018%" y1="42.716%" y2="57.283%">
      <stop offset="0%" stop-color="#42363F"/>
      <stop offset="100%" stop-color="#594469"/>
    </linearGradient>
    <linearGradient id="risipa-e" x1="51.336%" x2="49.91%" y1="42.555%" y2="52.104%">
      <stop offset="0%" stop-color="#FFF"/>
      <stop offset="100%" stop-color="#BFD1FF"/>
    </linearGradient>
    <linearGradient id="risipa-f" x1="63.068%" x2="39.504%" y1="62.816%" y2="36.881%">
      <stop offset="0%" stop-color="#FFF"/>
      <stop offset="100%" stop-color="#D9E5FF"/>
    </linearGradient>
    <linearGradient id="risipa-g" x1="60.949%" x2="48.286%" y1="43.567%" y2="50.766%">
      <stop offset="0%" stop-color="#FFF"/>
      <stop offset="100%" stop-color="#D9E5FF"/>
    </linearGradient>
    <linearGradient id="risipa-h" x1="53.145%" x2="46.204%" y1="45.211%" y2="57.07%">
      <stop offset="0%" stop-color="#6DE19D"/>
      <stop offset="100%" stop-color="#5975AD"/>
    </linearGradient>
    <linearGradient id="risipa-i" x1="-18.287%" x2="100.416%" y1="39.207%" y2="58.175%">
      <stop offset="0%" stop-color="#6DE19D"/>
      <stop offset="100%" stop-color="#5975AD"/>
    </linearGradient>
    <linearGradient id="risipa-j" x1="45.514%" x2="61.53%" y1="-37.657%" y2="130.188%">
      <stop offset="0%" stop-color="#D5EFB1"/>
      <stop offset="100%" stop-color="#95E57D"/>
    </linearGradient>
    <linearGradient id="risipa-k" x1="-5.098%" x2="51.32%" y1="27.947%" y2="50.536%">
      <stop offset="0%" stop-color="#D5EFB1"/>
      <stop offset="100%" stop-color="#95E57D"/>
    </linearGradient>
    <linearGradient id="risipa-l" x1="69.368%" x2="43.12%" y1="-54.559%" y2="115.183%">
      <stop offset="0%" stop-color="#D5EFB1"/>
      <stop offset="100%" stop-color="#95E57D"/>
    </linearGradient>
    <linearGradient id="risipa-m" x1="79.191%" x2="54.753%" y1="-123.584%" y2="31.245%">
      <stop offset="0%" stop-color="#D5EFB1"/>
      <stop offset="100%" stop-color="#95E57D"/>
    </linearGradient>
    <linearGradient id="risipa-n" x1="72.324%" x2="54.447%" y1="-142.525%" y2="38.145%">
      <stop offset="0%" stop-color="#D5EFB1"/>
      <stop offset="100%" stop-color="#95E57D"/>
    </linearGradient>
    <linearGradient id="risipa-o" x1="59.13%" x2="38.749%" y1="116.463%" y2="-3.328%">
      <stop offset="0%" stop-color="#42363F"/>
      <stop offset="100%" stop-color="#594469"/>
    </linearGradient>
    <linearGradient id="risipa-p" x1="71.061%" x2="15.841%" y1="-33.823%" y2="244.785%">
      <stop offset="0%" stop-color="#6139C1"/>
      <stop offset="100%" stop-color="#9B83FF"/>
    </linearGradient>
    <linearGradient id="risipa-q" x1="114.646%" x2="37.338%" y1="-65.539%" y2="99.917%">
      <stop offset="0%" stop-color="#6139C1"/>
      <stop offset="100%" stop-color="#9B83FF"/>
    </linearGradient>
    <linearGradient id="risipa-r" x1="53.268%" x2="48.507%" y1="-81.642%" y2="93.774%">
      <stop offset="0%" stop-color="#42363F"/>
      <stop offset="100%" stop-color="#594469"/>
    </linearGradient>
    <linearGradient id="risipa-s" x1="57.045%" x2="34.182%" y1="42.93%" y2="66.092%">
      <stop offset="0%" stop-color="#42363F"/>
      <stop offset="100%" stop-color="#594469"/>
    </linearGradient>
    <linearGradient id="risipa-t" x1="75.248%" x2="29.195%" y1="126.347%" y2="1.746%">
      <stop offset="0%" stop-color="#FF8395"/>
      <stop offset="100%" stop-color="#FFBDBD"/>
    </linearGradient>
    <linearGradient id="risipa-u" x1="50.757%" x2="48.581%" y1="114.46%" y2="-10.577%">
      <stop offset="0%" stop-color="#6139C1"/>
      <stop offset="100%" stop-color="#9B83FF"/>
    </linearGradient>
    <linearGradient id="risipa-v" x1="48.061%" x2="68.305%" y1="116.522%" y2="-172.012%">
      <stop offset="0%" stop-color="#6139C1"/>
      <stop offset="100%" stop-color="#9B83FF"/>
    </linearGradient>
    <linearGradient id="risipa-w" x1="46.685%" x2="56.386%" y1="108.02%" y2="-66.22%">
      <stop offset="0%" stop-color="#FF8395"/>
      <stop offset="100%" stop-color="#FFBDBD"/>
    </linearGradient>
    <linearGradient id="risipa-x" x1="84.138%" x2="42.739%" y1="-26.048%" y2="67.108%">
      <stop offset="0%" stop-color="#FFF"/>
      <stop offset="100%" stop-color="#D9E5FF"/>
    </linearGradient>
    <linearGradient id="risipa-y" x1="281.149%" x2="-14.434%" y1="55.118%" y2="47.698%">
      <stop offset="0%" stop-color="#FF8395"/>
      <stop offset="100%" stop-color="#FFBDBD"/>
    </linearGradient>
    <linearGradient id="risipa-z" x1="43.291%" x2="56.396%" y1="-64.908%" y2="168.424%">
      <stop offset="0%" stop-color="#FF8395"/>
      <stop offset="100%" stop-color="#FFBDBD"/>
    </linearGradient>
    <linearGradient id="risipa-A" x1="63.6%" x2="41.404%" y1="-76.662%" y2="86.839%">
      <stop offset="0%" stop-color="#FF8395"/>
      <stop offset="100%" stop-color="#FFBDBD"/>
    </linearGradient>
    <linearGradient id="risipa-B" x1="50.933%" x2="48.768%" y1="160.21%" y2="-23.396%">
      <stop offset="0%" stop-color="#6139C1"/>
      <stop offset="100%" stop-color="#9B83FF"/>
    </linearGradient>
    <linearGradient id="risipa-C" x1="43.725%" x2="52.643%" y1="15.82%" y2="73.297%">
      <stop offset="0%" stop-color="#FFF"/>
      <stop offset="100%" stop-color="#D9E5FF"/>
    </linearGradient>
    <linearGradient id="risipa-D" x1="56.262%" x2="47.343%" y1="15.82%" y2="73.297%">
      <stop offset="0%" stop-color="#FFF"/>
      <stop offset="100%" stop-color="#D9E5FF"/>
    </linearGradient>
  </defs>
  <g fill="none" fill-rule="evenodd">
    <g transform="translate(51)">
      <g transform="translate(0 210.342)">
        <path fill="url(#risipa-a)" fill-rule="nonzero" d="M59.0808065,54.2509938 C53.9017742,34.6520497 38.006129,-4.52590062 26.5126613,1.33583851 C15.0191935,7.19757764 40.8545968,36.1673292 47.8064516,56.8429193"/>
        <path stroke="url(#risipa-b)" stroke-linecap="round" stroke-linejoin="round" stroke-width=".5" d="M32.4884677,9.31099379 C32.4884677,9.31099379 46.8104839,37.4632919 48.0454839,47.4920497" opacity=".25"/>
        <path fill="url(#risipa-c)" fill-rule="nonzero" d="M59.5987097,52.0378882 C43.3046774,39.9754658 6.45387097,19.3397516 1.13540323,31.1031056 C-4.18306452,42.8664596 34.0820161,49.3263354 52.4277419,61.1096273"/>
        <path stroke="url(#risipa-d)" stroke-linecap="round" stroke-linejoin="round" stroke-width=".5" d="M8.2466129,33.9741615 C22.3694355,38.0813665 48.8621774,52.9949068 48.8621774,52.9949068" opacity=".25"/>
      </g>
      <polyline fill="url(#risipa-e)" fill-rule="nonzero" points="51.671 131.487 63.722 117.411 75.235 120.96 77.964 126.044 93.043 111.809 103.72 111.809 107.784 117.93 112.883 121.658 123.221 116.733 147.622 122.336 158.658 128.776 158.658 139.462 132.543 150.149"/>
      <g fill-rule="nonzero" transform="translate(10.96 269.161)">
        <path fill="url(#risipa-f)" d="M5.5733871,13.6543478 C13.9594355,17.7416149 77.2830645,10.8630435 79.5737903,14.9303727 C81.8645161,18.9977019 45.4917742,17.4824224 36.8467742,18.7584472 C28.2017742,20.0145342 26.6879032,32.4956522 46.0096774,31.9772671 C65.3314516,31.4788199 90.7684677,29.1859627 88.2187903,33.771677 C85.6691129,38.3573913 63.0407258,35.8053416 64.0566129,44.1991925 C65.0725,52.6129814 112.62,50.3201242 139.331855,50.5593789 C166.02379,50.8185714 173.154919,41.6670807 152.299355,39.3742236 C131.44379,37.0813665 116.9425,35.8053416 125.368387,33.2532919 C133.774355,30.7211801 219.168629,37.5798137 217.395806,26.1354658 C215.622984,14.6711801 187.138306,23.3242236 189.927016,18.4992547 C192.735645,13.6543478 233.410968,19.7752795 235.960645,8.31099379 C236.996452,3.64552795 204.01,1.57198758 163.294839,0.754534161 C130.746613,0.116521739 93.2783065,0.295962733 64.2558065,0.65484472 C40.3326613,0.933975155 22.1662097,1.35267081 17.2660484,1.49223602 C-1.03983871,2.03055901 -2.81266129,9.58701863 5.5733871,13.6543478 Z"/>
        <path fill="url(#risipa-g)" d="M64.0566129,2.50906832 C65.0725,10.9029193 112.62,8.61006211 139.331855,8.86925466 C158.713387,9.04869565 167.796613,4.26360248 163.294839,0.754534161 C130.746613,0.116521739 93.2783065,0.295962733 64.2558065,0.65484472 C64.0566129,1.1931677 63.9769355,1.81124224 64.0566129,2.50906832 Z"/>
      </g>
      <g fill-rule="nonzero" transform="translate(28.887 128.596)">
        <path fill="url(#risipa-h)" d="M149.849274,21.5528571 L4.31846774,21.5528571 C1.58951613,21.5528571 -0.402419355,18.9609317 0.314677419,16.3091925 L3.88024194,3.22993789 C4.37822581,1.43552795 6.0116129,0.179440994 7.88403226,0.179440994 L146.28371,0.179440994 C148.156129,0.179440994 149.809435,1.43552795 150.2875,3.22993789 L152.100161,9.84931677 L153.853065,16.3091925 C154.570161,18.9609317 152.578226,21.5528571 149.849274,21.5528571 Z"/>
        <path fill="url(#risipa-i)" d="M149.849274,21.5528571 L24.8951613,21.5528571 L27.2456452,12.9197516 C27.743629,11.1054037 29.3770161,9.84931677 31.2494355,9.84931677 L152.100161,9.84931677 L153.853065,16.3091925 C154.570161,18.9609317 152.578226,21.5528571 149.849274,21.5528571 Z"/>
        <path fill="url(#risipa-j)" d="M145.367419,21.5528571 L134.929677,139.206335 C134.650806,142.336584 132.041371,144.749068 128.894113,144.749068 L25.2935484,144.749068 C22.1462903,144.749068 19.5169355,142.336584 19.2380645,139.206335 L8.82024194,21.5528571 L145.367419,21.5528571 Z"/>
        <path fill="url(#risipa-k)" d="M145.367419,21.5528571 L134.929677,139.206335 C134.650806,142.336584 132.041371,144.749068 128.894113,144.749068 L77.8408065,144.749068 L95.5491129,21.5528571 L145.367419,21.5528571 Z"/>
        <g transform="translate(47.806 55.826)">
          <path fill="url(#risipa-l)" d="M27.6041935,4.08726708 C27.9029839,4.08726708 28.6599194,4.16701863 29.1180645,4.96453416 L34.6755645,14.5945342 L30.7315323,16.9870807 C29.3770161,17.8045342 29.4168548,19.798323 30.8112097,20.5759006 L42.0058871,26.7367081 C43.4002419,27.5142857 45.0933871,26.4775155 45.0736419,24.8824845 L44.8145161,12.1022981 C44.7746774,10.5072671 43.0416935,9.55024845 41.6871774,10.3677019 L38.1216129,12.5209938 L32.6039516,2.95080745 C31.5681452,1.15639752 29.7156452,0.0797515528 27.6440323,0.0797515528 C25.5724194,0.0797515528 23.7199194,1.15639752 22.6841129,2.95080745 L15.6326613,15.1727329 C15.0749194,16.1297516 15.4135484,17.3459627 16.3696774,17.9042236 C17.3258065,18.4425466 18.5408871,18.1235404 19.098629,17.1665217 L26.1500806,4.94459627 C26.5484677,4.16701863 27.2854839,4.08726708 27.6041935,4.08726708 Z"/>
          <path fill="url(#risipa-m)" d="M57.2840323,42.6670807 L49.9337903,30.6245963 C49.356129,29.6875155 48.1410484,29.3884472 47.2048387,29.966646 C46.268629,30.5448447 45.9698387,31.7610559 46.5475,32.6981366 L53.8977419,44.7406211 C54.3758065,45.5181988 54.0770161,46.2359627 53.9375806,46.4951553 C53.7981452,46.7543478 53.3599194,47.3923602 52.443629,47.4122981 L41.328629,47.6714907 L41.1294355,43.0658385 C41.0497581,41.4708075 39.2968548,40.5536646 37.9423387,41.4109938 L27.1858871,48.2895652 C25.8512903,49.1468944 25.9309677,51.1406832 27.3452419,51.8783851 L38.6793548,57.7600621 C40.093629,58.497764 41.7668548,57.421118 41.6871774,55.826087 L41.5079032,51.6590683 L52.5432258,51.3998758 C54.6148387,51.36 56.4474194,50.2434783 57.4433871,48.4091925 C58.4194355,46.5948447 58.3795968,44.4415528 57.2840323,42.6670807 Z"/>
          <path fill="url(#risipa-n)" d="M20.2937903,47.8908075 L6.1908871,47.5917391 C5.27459677,47.5718012 4.83637097,46.9537267 4.69693548,46.6745963 C4.5575,46.4154037 4.25870968,45.6976398 4.73677419,44.9200621 L10.4934677,35.4096894 L14.4972581,37.7224845 C15.8716935,38.52 17.6046774,37.5231056 17.6046774,35.9280745 L17.6046774,23.1478882 C17.6046774,21.5528571 15.8916129,20.5559627 14.4972581,21.3534783 L3.42209677,27.7336025 C2.04766129,28.531118 2.04766129,30.5249068 3.42209677,31.3224224 L7.0275,33.4159006 L1.31064516,42.8664596 C0.235,44.6409317 0.19516129,46.7942236 1.19112903,48.6085714 C2.18709677,50.4229193 4.01967742,51.539441 6.09129032,51.5793168 L20.1941935,51.8783851 C20.2141129,51.8783851 20.2141129,51.8783851 20.2340323,51.8783851 C21.3096774,51.8783851 22.2060484,51.0210559 22.2259677,49.924472 C22.2658065,48.8079503 21.3893548,47.9107453 20.2937903,47.8908075 Z"/>
        </g>
        <path fill="#FFF" d="M27.6041935 4.36329193C27.9029839 4.36329193 28.6599194 4.44304348 29.1180645 5.24055901L34.6755645 14.870559 30.7315323 17.2631056C29.3770161 18.080559 29.4168548 20.0743478 30.8112097 20.8519255L42.0058871 27.0127329C43.4002419 27.7903106 45.0933871 26.7535404 45.0736419 25.1585093L44.8145161 12.378323C44.7746774 10.7832919 43.0416935 9.82627329 41.6871774 10.6437267L38.1216129 12.8169565 32.6039516 3.24677019C31.5681452 1.45236025 29.7156452.375714286 27.6440323.375714286 25.5724194.375714286 23.7199194 1.45236025 22.6841129 3.24677019L15.6326613 15.4686957C15.0749194 16.4257143 15.4135484 17.6419255 16.3696774 18.2001863 17.3258065 18.7385093 18.5408871 18.4195031 19.098629 17.4624845L26.1500806 5.24055901C26.5484677 4.44304348 27.2854839 4.36329193 27.6041935 4.36329193zM57.2840323 42.9431056L49.9337903 30.9006211C49.356129 29.9635404 48.1410484 29.664472 47.2048387 30.2426708 46.268629 30.8208696 45.9698387 32.0370807 46.5475 32.9741615L53.8977419 45.016646C54.3758065 45.7942236 54.0770161 46.5119876 53.9375806 46.7711801 53.7981452 47.0303727 53.3599194 47.6683851 52.443629 47.688323L41.328629 47.9475155 41.1294355 43.3418634C41.0497581 41.7468323 39.2968548 40.8296894 37.9423387 41.6870186L27.1858871 48.5655901C25.8512903 49.4229193 25.9309677 51.4167081 27.3452419 52.1544099L38.6793548 58.036087C40.093629 58.7737888 41.7668548 57.6971429 41.6871774 56.1021118L41.5079032 51.9350932 52.5432258 51.6759006C54.6148387 51.6360248 56.4474194 50.5195031 57.4433871 48.6852174 58.4194355 46.8708696 58.3795968 44.7175776 57.2840323 42.9431056zM20.2937903 48.1468944L6.1908871 47.8478261C5.27459677 47.8278882 4.83637097 47.2098137 4.69693548 46.9306832 4.5575 46.6714907 4.25870968 45.9537267 4.73677419 45.1761491L10.4934677 35.6657764 14.4972581 37.9785714C15.8716935 38.776087 17.6046774 37.7791925 17.6046774 36.1841615L17.6046774 23.4039752C17.6046774 21.8089441 15.8916129 20.8120497 14.4972581 21.6095652L3.42209677 27.9896894C2.04766129 28.787205 2.04766129 30.7809938 3.42209677 31.5785093L7.0275 33.6719876 1.31064516 43.1225466C.235 44.8970186.19516129 47.0503106 1.19112903 48.8646584 2.18709677 50.6790062 4.01967742 51.795528 6.09129032 51.8354037L20.1941935 52.134472C20.2141129 52.134472 20.2141129 52.134472 20.2340323 52.134472 21.3096774 52.134472 22.2060484 51.2771429 22.2259677 50.180559 22.2658065 49.0839752 21.3893548 48.1867702 20.2937903 48.1468944z" transform="translate(47.806 52.839)"/>
      </g>
      <g fill-rule="nonzero" transform="translate(143.42 36.882)">
        <path fill="url(#risipa-o)" d="M37.6475806,10.7863975 C28.4846774,10.2680124 33.9625,23.8855901 37.1296774,31.920559 C40.3167742,39.9355901 36.1137903,54.0715528 37.6475806,57.3812422 C39.181371,60.6909317 62.8256452,65.3364596 76.1716129,65.7551553 C89.5175806,66.1738509 99.4374194,56.3644099 91.4298387,48.0901863 C83.4222581,39.8159627 75.1756452,33.4557764 72.6259677,25.4407453 C70.0762903,17.4257143 65.9529839,3.5489441 57.0490323,1.57509317 C48.1450806,-0.418695652 35.6158065,1.75453416 37.6475806,10.7863975 Z"/>
        <path fill="url(#risipa-p)" d="M37.7073387,218.439503 C36.153629,222.546708 23.9430645,232.894472 23.5247581,235.187329 C23.1064516,237.480186 27.7675806,237.061491 32.1697581,236.463354 C36.5719355,235.865217 47.3483065,237.400435 47.9259677,234.429689 C48.5235484,231.458944 46.9100806,217.960994 46.9100806,217.960994"/>
        <path fill="url(#risipa-q)" d="M57.8458065,218.439503 C56.2920968,222.546708 44.0815323,232.894472 43.6632258,235.187329 C43.2449194,237.480186 47.9060484,237.061491 52.3082258,236.463354 C56.7104032,235.865217 67.4867742,237.400435 68.0644355,234.429689 C68.6620161,231.458944 67.0485484,217.960994 67.0485484,217.960994"/>
        <path fill="url(#risipa-r)" d="M67.8851613,219.117391 C68.0445161,222.805901 63.6423387,221.370373 61.6105645,221.529876 C59.558871,221.709317 55.1566935,223.224596 54.6587097,221.529876 C54.1408065,219.835155 50.4158871,137.710994 50.4158871,137.710994 L39.4004839,162.314348 C39.4004839,162.314348 47.5275806,212.378385 48.3841129,215.588385 C49.2207258,218.818323 47.5275806,220.513043 44.8185484,219.835155 C42.7867742,219.31677 39.1216129,220.45323 37.2890323,220.07441 C36.6715323,219.954783 36.2532258,219.675652 36.1735484,219.117391 C35.8349194,216.86441 18.3656452,176.729441 18.186371,167.059565 C18.0270161,158.745466 33.5441935,117.274658 37.9264516,105.730621 C38.1654839,105.092609 38.3845968,104.554286 38.5439516,104.115652 C38.8825806,103.238385 39.0618548,102.759876 39.0618548,102.759876 L43.9620161,102.939317 L50.4158871,103.158634 L72.6259677,103.936211 C77.3866935,115.998634 67.7058871,215.428882 67.8851613,219.117391 Z"/>
        <path fill="url(#risipa-s)" d="M50.4158871,137.710994 L39.4004839,162.314348 C39.4004839,162.314348 47.5275806,212.378385 48.3841129,215.588385 C49.2207258,218.818323 47.5275806,220.513043 44.8185484,219.835155 C42.7867742,219.31677 39.1216129,220.45323 37.2890323,220.07441 C38.8228226,214.571553 40.3366935,206.716025 40.0777419,197.584472 C39.5598387,179.740062 36.8906452,160.579752 36.8906452,160.579752 C36.8906452,160.579752 47.3283871,124.551988 46.0734677,115.639752 C45.2567742,109.817888 40.8545968,106.986708 37.9264516,105.730621 C38.1654839,105.092609 38.3845968,104.554286 38.5439516,104.115652 L43.9620161,102.939317 L50.4158871,103.158634 L50.4158871,137.710994 Z"/>
        <path fill="url(#risipa-t)" d="M10.0194355,71.158323 C5.81645161,70.0617391 1.83258065,65.5557764 1.07564516,61.6080745 C0.318709677,57.6603727 3.40620968,55.287764 4.04362903,55.3276398 C4.68104839,55.3675155 5.81645161,61.0498137 7.46975806,62.2062112 C9.12306452,63.3426708 7.46975806,59.0759627 9.0433871,58.7768944 C10.5970968,58.4778261 10.0592742,61.6280124 10.4775806,62.9837888 C10.8958871,64.3395652 13.5650806,68.0280745 13.5650806,68.0280745"/>
        <path fill="url(#risipa-u)" d="M75.5142742,104.614099 C75.3748387,106.926894 71.1320161,107.844037 66.1123387,107.963665 C61.0129839,108.083292 55.1367742,107.385466 52.0293548,106.488261 C45.8344355,104.713789 39.1415323,107.166149 37.1894355,105.471429 C35.2373387,103.776708 37.8666935,99.0115528 37.2691129,95.0239752 C36.6914516,91.0363975 37.0300806,78.9141615 37.0300806,78.9141615 C37.0300806,78.9141615 31.2534677,92.2326708 25.8354032,92.5716149 C20.4173387,92.910559 11.1747581,76.1228571 10.0592742,74.5078882 C8.96370968,72.8929193 7.42991935,71.0187578 8.20677419,70.0019255 C8.96370968,68.9850932 11.1747581,65.7551553 11.5930645,64.738323 C12.011371,63.7214907 15.8358871,66.4330435 26.6720161,77.2991925 C29.301371,70.261118 33.9625,52.6958385 39.6594355,45.9169565 C45.3364516,39.1181366 53.383871,42.6870186 57.0490323,40.473913 C60.7341129,38.2807453 63.6423387,38.8589441 70.2555645,42.3081988 L71.0921774,54.3506832 L71.4308065,59.1357764 C68.9010484,90.6177019 75.7533065,99.9486335 75.5142742,104.614099 Z"/>
        <path fill="url(#risipa-v)" d="M75.5142742,104.614099 C75.3748387,106.926894 71.1320161,107.844037 66.1123387,107.963665 C72.586129,103.776708 71.4706452,96.2401863 69.5783065,94.1467081 C67.2875806,91.5946584 65.6342742,94.7847205 63.8016935,98.4732298 C61.9691129,102.161739 58.383629,102.161739 53.5033871,101.264534 C48.6430645,100.387267 44.4002419,97.0775776 51.2923387,96.3 C58.1844355,95.5423602 65.6342742,92.1130435 66.1322581,90.1990062 C66.6501613,88.2849689 59.6584677,90.4581988 55.1965323,87.6469565 C50.7545161,84.8556522 51.2923387,78.9141615 51.2923387,78.9141615 C51.2923387,78.9141615 55.7144355,79.6319255 61.1723387,76.3621118 C66.6501613,73.0922981 62.8256452,59.913354 64.0805645,47.2727329 L71.0921774,54.3506832 L71.4308065,59.1357764 C68.9010484,90.6177019 75.7533065,99.9486335 75.5142742,104.614099 Z"/>
        <path fill="url(#risipa-w)" d="M54.7782258,75.8237888 C53.3241129,74.9664596 49.8581452,72.5938509 49.5593548,73.83 C49.2605645,75.0661491 51.9297581,76.3820497 51.9297581,76.3820497"/>
        <path fill="url(#risipa-x)" d="M55.1965323,84.0780745 C55.1965323,84.0780745 50.0971774,67.589441 47.6670161,67.3501863 C45.2368548,67.1109317 32.448629,66.333354 32.448629,67.3501863 C32.448629,68.3670186 39.1216129,82.3634161 39.8984677,83.3802484 C40.6753226,84.3970807 50.2565323,83.3004969 55.1965323,84.0780745 Z"/>
        <path fill="url(#risipa-y)" d="M57.9852419,76.322236 C54.0412097,74.8069565 47.1291935,76.2823602 45.0376613,75.9434161 C42.946129,75.604472 41.4322581,75.1259627 41.7310484,75.8437267 C42.0298387,76.5614907 44.7189516,79.891118 47.6670161,80.9478261 C50.6150806,82.0045342 53.5830645,80.6487578 54.8180645,80.8680745 C56.0530645,81.0873913 59.2003226,82.3434783 59.2003226,82.3434783"/>
        <path fill="url(#risipa-z)" d="M47.6470968,35.8881988 C48.503629,37.3636025 49.5195161,43.2652174 50.1569355,45.5580745 C50.7943548,47.8509317 54.1009677,47.8509317 56.4315323,45.5580745 C58.7620968,43.2652174 59.3596774,39.6963354 59.3596774,39.6963354 C59.3596774,39.6963354 56.7701613,35.4096894 57.0689516,26.4974534"/>
        <path fill="url(#risipa-A)" d="M38.7829839,14.4549689 C38.7829839,14.4549689 38.6435484,24.3640994 39.9383065,29.0893789 C41.2529839,33.8146584 42.5875806,38.2408696 46.4320161,38.5798137 C50.2764516,38.9187578 56.7104032,33.2165217 57.706371,27.813354 C58.7620968,29.4681988 62.3675,29.0893789 63.5228226,25.9591304 C64.6781452,22.8488199 61.6902419,21.2936646 60.4751613,21.4332298 C59.2600806,21.572795 58.4234677,23.2475776 58.4234677,23.2475776 L58.2840323,20.6157764 C58.2641129,20.6157764 47.7267742,23.3472671 38.7829839,14.4549689 Z"/>
        <path fill="url(#risipa-B)" d="M74.9565323,75.1259627 C74.9565323,75.1259627 64.9171774,58.2784472 63.7817742,52.616087 C62.646371,46.9537267 66.4908065,40.7530435 70.6141129,42.6670807 C74.7374194,44.581118 88.6809677,73.9895031 88.1630645,81.1073292 C87.6451613,88.2251553 83.5816129,90.1391925 77.1675806,88.7435404 C70.7535484,87.3478882 57.5868548,84.6163975 57.148629,83.3403727 C56.7104032,82.0643478 57.6665323,75.5845342 57.6665323,75.5845342 C57.6665323,75.5845342 69.1799194,76.3820497 74.9565323,75.1259627 Z"/>
      </g>
      <path fill="url(#risipa-C)" fill-rule="nonzero" d="M64.9769355,97.1940994 L15.5570161,97.1940994 C15.716371,90.2756522 22.7877419,88.7204969 24.3812903,92.6482609 C25.7557258,87.3647205 29.2615323,85.5503727 32.1697581,85.9092547 C33.2454032,83.5765217 34.8190323,81.6624845 36.6516129,80.7254037 C41.3127419,78.352795 48.8621774,80.3067081 51.4118548,90.2357764 C53.8619355,84.2145342 64.7179839,86.5871429 64.9769355,97.1940994 Z"/>
      <path fill="url(#risipa-D)" fill-rule="nonzero" d="M149.534597,17.4425466 L198.954516,17.4425466 C198.795161,10.5240994 191.72379,8.9689441 190.130242,12.8967081 C188.755806,7.6131677 185.25,5.79881988 182.341774,6.15770186 C181.266129,3.82496894 179.6925,1.91093168 177.859919,0.973850932 C173.19879,-1.39875776 165.649355,0.55515528 163.099677,10.4842236 C160.649597,4.46298137 149.793548,6.83559006 149.534597,17.4425466 Z"/>
    </g>
    <rect width="369" height="6" y="273" fill="#E9F0FF" rx="3"/>
  </g>
</svg>
