<svg xmlns="http://www.w3.org/2000/svg" xmlns:xlink="http://www.w3.org/1999/xlink" width="38" height="38" viewBox="0 0 38 38">
  <defs>
    <rect id="user-a" width="18" height="7.5" x="0" y="0" rx="1"/>
  </defs>
  <g fill="none" fill-rule="evenodd">
    <rect width="37" height="37" x=".5" y=".5" fill="#FFF" fill-opacity=".7" stroke="#FFF" rx="8"/>
    <g transform="translate(10 10)">
      <g transform="translate(0 10.5)">
        <mask id="user-b" fill="#fff">
          <use xlink:href="#user-a"/>
        </mask>
        <path fill="#41436B" fill-rule="nonzero" d="M9.00001936,0.241935484 C3.04356791,0.241935484 -0.236842105,3.11594004 -0.236842105,8.33464988 C-0.236842105,8.74223756 0.0870443223,9.07258065 0.48666558,9.07258065 L17.5133344,9.07258065 C17.9129557,9.07258065 18.2368421,8.74223756 18.2368421,8.33464988 C18.2368421,3.11621648 14.9564708,0.241935484 9.00001936,0.241935484 Z M9.00001936,1.7178365 C13.8707059,1.7178365 16.4789887,3.69476114 16.7638074,7.59671912 L1.23650235,7.59671912 C1.52108875,3.69476114 4.12933279,1.7178365 9.00001936,1.7178365 Z" mask="url(#user-b)"/>
      </g>
      <path fill="#41436B" fill-rule="nonzero" d="M9.375,0 C6.59574146,0 4.5,2.0307939 4.5,4.72363752 C4.5,7.49534729 6.68690854,9.75 9.375,9.75 C12.0630915,9.75 14.25,7.49534729 14.25,4.72386168 C14.25,2.0307939 12.1542585,0 9.375,0 Z M9.375,8.35402066 C7.49726505,8.35402066 5.96984292,6.72555244 5.96984292,4.72386168 C5.96984292,2.79569464 7.40196832,1.3962035 9.375,1.3962035 C11.3164496,1.3962035 12.7801571,2.8266284 12.7801571,4.72386168 C12.7801571,6.72555244 11.252735,8.35402066 9.375,8.35402066 Z"/>
    </g>
  </g>
</svg>
