<svg xmlns="http://www.w3.org/2000/svg" width="23" height="21" viewBox="0 0 23 21">
  <g fill="none" fill-rule="evenodd">
    <path fill="#1170DA" fill-rule="nonzero" d="M15.1111111,4.66666667 L12.6093333,4.66666667 C12.2,2.5825 10.2906667,1 8,1 C5.70933333,1 3.8,2.5825 3.39111111,4.66666667 L0.888888889,4.66666667 C0.398222222,4.66666667 0,5.04 0,5.5 L0,20.1666667 C0,20.6266667 0.398222222,21 0.888888889,21 L15.1111111,21 C15.6017778,21 16,20.6266667 16,20.1666667 L16,5.5 C16,5.04 15.6017778,4.66666667 15.1111111,4.66666667 Z M8,2.66666667 C9.30933333,2.66666667 10.4191111,3.51 10.7862222,4.66666667 L5.21377778,4.66666667 C5.58088889,3.51 6.69111111,2.66666667 8,2.66666667 Z M14.777778,19.533333 L1.277778,19.533333 L1.277778,6.033333 L2.93683157,6.033333 L2.93683157,7.54429454 C2.93683157,8.02198685 3.36883157,8.40967915 3.90111729,8.40967915 C4.433403,8.40967915 4.865403,8.02198685 4.865403,7.54429454 L4.865403,6.033333 L11.1906351,6.033333 L11.1906351,7.54429454 C11.1906351,8.02198685 11.6226351,8.40967915 12.1549209,8.40967915 C12.6872066,8.40967915 13.1192066,8.02198685 13.1192066,7.54429454 L13.1192066,6.033333 L14.777778,6.033333 L14.777778,19.533333 Z"/>
    <path fill="#1170DA" fill-rule="nonzero" d="M12.28,14.75125 C11.7893333,14.75125 11.3911111,15.1245833 11.3911111,15.5845833 L11.3911111,16.5858333 L10.3764444,16.5858333 C9.88577778,16.5858333 9.48755556,16.9591667 9.48755556,17.4191667 C9.48755556,17.8791667 9.88577778,18.2525 10.3764444,18.2525 L12.28,18.2525 C12.7706667,18.2525 13.1688889,17.8791667 13.1688889,17.4191667 L13.1688889,15.5845833 C13.1688889,15.1241667 12.7706667,14.75125 12.28,14.75125 Z"/>
    <circle cx="20" cy="3" r="3" fill="#F52865"/>
  </g>
</svg>
